<?xml version="1.0" encoding="UTF-8" standalone="no"?>
<!-- Created with Inkscape (http://www.inkscape.org/) -->

<svg
   xmlns:dc="http://purl.org/dc/elements/1.1/"
   xmlns:cc="http://creativecommons.org/ns#"
   xmlns:rdf="http://www.w3.org/1999/02/22-rdf-syntax-ns#"
   xmlns:svg="http://www.w3.org/2000/svg"
   xmlns="http://www.w3.org/2000/svg"
   xmlns:sodipodi="http://sodipodi.sourceforge.net/DTD/sodipodi-0.dtd"
   xmlns:inkscape="http://www.inkscape.org/namespaces/inkscape"
   width="600"
   height="1404"
   id="svg2"
   version="1.1"
   inkscape:version="0.48.0 r9654"
   sodipodi:docname="todo-icon.svg">
  <defs
     id="defs4" />
  <sodipodi:namedview
     id="base"
     pagecolor="#ffffff"
     bordercolor="#666666"
     borderopacity="1.0"
     inkscape:pageopacity="0.0"
     inkscape:pageshadow="2"
     inkscape:zoom="0.35"
     inkscape:cx="1002.614"
     inkscape:cy="641.99995"
     inkscape:document-units="px"
     inkscape:current-layer="layer1"
     showgrid="false"
     inkscape:window-width="1280"
     inkscape:window-height="940"
     inkscape:window-x="-8"
     inkscape:window-y="-8"
     inkscape:window-maximized="1"
     fit-margin-top="0"
     fit-margin-left="0"
     fit-margin-right="0"
     fit-margin-bottom="0" />
  <metadata
     id="metadata7">
    <rdf:RDF>
      <cc:Work
         rdf:about="">
        <dc:format>image/svg+xml</dc:format>
        <dc:type
           rdf:resource="http://purl.org/dc/dcmitype/StillImage" />
        <dc:title></dc:title>
      </cc:Work>
    </rdf:RDF>
  </metadata>
  <g
     inkscape:label="Ebene 1"
     inkscape:groupmode="layer"
     id="layer1"
     transform="translate(652.614,1.0664)">
    <g
       id="g3018"
       transform="translate(-1052.614,-342.85714)">
      <path
         style="fill:#fefefe"
         d="m 400,1043.7907 0,-701.99996 300,0 300,0 0,701.99996 0,702 -300,0 -300,0 0,-702 z"
         id="path3034"
         inkscape:connector-curvature="0" />
      <path
         style="fill:#dbdbdb"
         d="m 491,1745.0814 c -45.51789,-7.9553 -81.21825,-42.443 -89.4588,-86.42 -1.39916,-7.4668 -1.54057,-30.8547 -1.30518,-215.8724 l 0.26398,-207.4983 2.31786,-8 c 11.78945,-40.6908 45.86112,-72.2917 86.19302,-79.9425 7.2635,-1.3779 31.64669,-1.5575 211.48912,-1.5575 181.28081,0 204.18247,0.1714 211.62711,1.5836 41.89617,7.9476 73.67888,38.1829 85.58313,81.4164 1.69343,6.1502 1.78976,17.8302 1.78976,217 l 0,210.5 -2.25272,8.1773 c -9.81767,35.6376 -34.62209,63.1104 -67.96874,75.2804 -17.54982,6.4049 -3.95153,6.0559 -230.13901,5.9061 C 586.03779,1745.5796 492.375,1745.3217 491,1745.0814 z m -1,-804.42952 c -24.03378,-3.95486 -49.08598,-18.31213 -65.0468,-37.27794 -12.21511,-14.51488 -21.16864,-33.83417 -23.90625,-51.5832 -0.85535,-5.54556 -1.07734,-61.31215 -0.85188,-214 l 0.30493,-206.5 2.31786,-8 c 2.90726,-10.0343 9.69376,-24.49219 15.82736,-33.71844 6.03299,-9.07491 20.06143,-23.10335 29.13634,-29.13634 9.22625,-6.1336 23.68414,-12.9201 33.71844,-15.82736 l 8,-2.31786 207.49832,-0.26398 c 228.38327,-0.29056 214.63486,-0.63347 232.24273,5.79261 33.38642,12.18453 58.18387,39.6394 68.00623,75.29409 l 2.25272,8.17728 0,210.5 c 0,199.1698 -0.0963,210.84986 -1.78976,217 -5.66582,20.57695 -14.86267,36.96308 -28.56095,50.88735 -15.79627,16.05685 -35.03816,26.35876 -57.02218,30.52905 -7.45847,1.41485 -30.10141,1.57114 -212.48758,1.4667 C 583.17036,941.60714 493.13795,941.16825 490,940.65188 z M 672.6354,713.79074 c 3.51238,-9.075 8.13902,-21 10.28143,-26.5 2.14242,-5.5 4.4204,-11.68123 5.06219,-13.73607 0.64179,-2.05484 1.58406,-3.9939 2.09394,-4.30902 0.50987,-0.31512 0.92704,-1.23553 0.92704,-2.04535 0,-1.39932 6.13901,-17.94133 13.51217,-36.40956 1.86643,-4.675 3.71091,-9.85 4.09885,-11.5 0.38795,-1.65 1.26231,-3.9 1.94304,-5 0.68073,-1.1 1.55253,-3.125 1.93733,-4.5 1.10911,-3.96316 8.51162,-23.00483 11.07948,-28.5 1.28505,-2.75 3.47345,-6.53792 4.86311,-8.4176 3.50866,-4.74588 11.75049,-9.02782 18.79359,-9.76397 6.63829,-0.69384 8.03354,-1.88918 7.59066,-6.50311 L 754.5,553.29074 717.61747,553.02828 C 679.03668,552.75374 678,552.85988 678,557.08444 c 0,4.32137 2.7194,5.7063 11.20465,5.7063 12.46347,0 15.83056,2.60455 15.75146,12.18426 -0.0504,6.09853 -1.69183,11.32296 -5.22114,16.61775 -1.35572,2.03389 -3.93327,8.42299 -5.72789,14.19799 -6.12594,19.713 -22.52111,67.84736 -23.41369,68.73994 -1.07556,1.07556 -2.27285,-0.9105 -7.0774,-11.73994 -2.56211,-5.775 -5.48592,-12.3 -6.49735,-14.5 -1.01144,-2.2 -3.26203,-7.375 -5.00131,-11.5 -1.73929,-4.125 -4.0953,-9.525 -5.23558,-12 -1.14027,-2.475 -2.84206,-6.3 -3.78175,-8.5 -0.93969,-2.2 -2.63156,-6.025 -3.75972,-8.5 -1.12815,-2.475 -3.21874,-7.05963 -4.64573,-10.18807 -1.427,-3.12845 -2.59455,-6.10732 -2.59455,-6.61973 0,-0.51241 -0.9,-3.7489 -2,-7.1922 -2.69213,-8.42709 -2.61011,-13.0782 0.27847,-15.79189 2.86825,-2.69457 9.88206,-5.20811 14.53281,-5.20811 5.91687,0 10.43851,-5.88795 6.82481,-8.88706 -0.98411,-0.81673 -15.08611,-1.05968 -50.6412,-0.87244 -45.77132,0.24104 -49.35618,0.38462 -50.38609,2.01813 -0.84367,1.33811 -0.74261,2.41413 0.42262,4.5 1.21539,2.17566 2.35037,2.79351 5.5,2.99404 12.63748,0.8046 21.16974,7.72627 25.89482,21.00678 0.73197,2.0573 4.57809,11.16555 8.54695,20.24055 3.96885,9.075 10.11823,23.25 13.66528,31.5 3.54705,8.25 7.29133,16.8 8.32063,19 1.02929,2.2 3.08001,6.925 4.55714,10.5 2.77456,6.71508 5.30002,12.57726 8.40069,19.5 0.98538,2.2 2.79226,6.25 4.01529,9 1.22304,2.75 3.04557,6.8 4.05006,9 1.00449,2.2 2.28578,5.35 2.84731,7 3.47894,10.22257 7.94625,19.08153 10.20863,20.24437 1.55011,0.79674 5.56315,1.17095 10.83641,1.01048 l 8.37464,-0.25485 6.38613,-16.5 z m 176.8646,-12.5 0,-26 -26,0 -26,0 -0.26798,24.98196 c -0.14738,13.74008 -0.0461,25.5602 0.22512,26.26694 0.3877,1.01033 6.00192,1.22791 26.26797,1.01803 l 25.77489,-0.26693 0,-26 z m 1,-123.5 0,-25.5 -26.5,0 -26.5,0 -0.2683,24.48111 c -0.14757,13.46461 -0.0463,25.05961 0.225,25.76665 0.38825,1.01176 6.08919,1.22875 26.76831,1.01889 l 26.27499,-0.26665 0,-25.5 z"
         id="path3032"
         inkscape:connector-curvature="0" />
      <path
         style="fill:#e4c89f"
         d="m 647.0756,1534.545 c -1.7358,-0.8981 -3.8225,-4.5206 -7.34685,-12.7543 -4.64137,-10.8433 -17.28879,-39.9423 -20.2105,-46.5 -0.73514,-1.65 -4.2515,-9.75 -7.81413,-18 -3.56264,-8.25 -9.42606,-21.75 -13.02984,-30 C 588.95423,1405.0389 583,1390.9814 583,1390.2849 c 0,-0.3399 -1.12504,-2.9962 -2.5001,-5.9028 -4.71066,-9.9575 -13.75829,-16.5914 -22.62826,-16.5914 -2.87382,0 -4.63695,-0.6744 -6.41709,-2.4545 -2.66452,-2.6646 -3.02687,-4.6076 -1.41937,-7.6112 1.00232,-1.8729 2.61361,-1.9338 50.75,-1.919 27.34315,0.01 50.23234,0.3459 50.86487,0.75 3.00052,1.9168 1.43697,7.6212 -2.67126,9.7457 -1.58371,0.8189 -4.19686,1.489 -5.80701,1.489 -3.37539,0 -9.86869,2.4854 -12.42178,4.7546 -4.98441,4.4301 -0.74997,18.1838 18.70207,60.7454 3.49842,7.6546 17.39647,39.3511 18.51993,42.2373 0.69306,1.7805 1.62184,3.0137 2.06394,2.7405 0.44211,-0.2733 6.7347,-18.2895 13.98352,-40.0362 7.24883,-21.7466 14.70988,-42.4751 16.58012,-46.0631 2.91417,-5.591 3.40042,-7.5165 3.40042,-13.4659 0,-6.7589 -0.0857,-6.9943 -3.25,-8.9236 -2.45415,-1.4963 -5.03752,-1.9824 -10.54966,-1.9853 -9.20224,0 -13.20034,-1.8092 -13.20034,-5.958 0,-6.1238 -0.5174,-6.0457 40.03624,-6.0457 35.45196,0 36.93384,0.076 37.92858,1.9343 2.97072,5.5508 -0.17391,9.4623 -8.38281,10.4271 -14.04535,1.6508 -19.77888,8.421 -29.24493,34.5329 -1.87308,5.1668 -4.26128,11.4668 -5.30712,14 -1.04584,2.5331 -4.0096,10.2307 -6.58614,17.1057 -2.57654,6.875 -8.0287,21.275 -12.1159,32 -10.46993,27.4735 -14.33123,37.7503 -16.34433,43.5 -0.96283,2.75 -2.97964,7.7 -4.48179,11 -1.50215,3.3 -3.27042,8.025 -3.9295,10.5 l -1.19831,4.5 -8.937,0.2543 c -5.6881,0.1618 -9.81834,-0.2018 -11.36139,-1 z m 149.53757,-4.32 c -0.91546,-2.3856 -0.71084,-48.7322 0.22164,-50.2013 0.62308,-0.9816 6.75634,-1.2068 27.23469,-1 l 26.4305,0.267 0,26 0,26 -26.63683,0.2661 c -23.63663,0.2362 -26.70588,0.086 -27.25,-1.3318 z m 0,-123 c -0.91546,-2.3856 -0.71084,-48.7322 0.22164,-50.2013 0.62308,-0.9816 6.75634,-1.2068 27.23469,-1 l 26.4305,0.267 0,26 0,26 -26.63683,0.2661 c -23.63663,0.2362 -26.70588,0.086 -27.25,-1.3318 z"
         id="path3030"
         inkscape:connector-curvature="0" />
      <path
         style="fill:#efb257"
         d="m 647.0756,1534.545 c -1.7365,-0.8984 -3.81984,-4.5173 -7.3425,-12.7543 -5.65152,-13.2149 -14.34649,-33.3005 -24.67509,-57 -3.95503,-9.075 -7.57524,-17.4 -8.04491,-18.5 -0.46968,-1.1 -3.99091,-9.2 -7.82498,-18 -10.15393,-23.3055 -15.67167,-36.3728 -17.60196,-41.6856 -4.03812,-11.1144 -13.74965,-18.7592 -23.88161,-18.7993 -2.68289,-0.011 -4.51496,-0.7346 -6.25,-2.4696 -2.66452,-2.6646 -3.02687,-4.6076 -1.41937,-7.6112 1.00201,-1.8723 2.61812,-1.9343 50.41822,-1.9343 27.16066,0 50.09483,0.2731 50.96481,0.607 2.22309,0.8531 2.00046,5.9743 -0.36243,8.3372 -1.06933,1.0693 -3.65683,2.2143 -5.75,2.5444 -6.10726,0.9631 -11.36281,2.7684 -13.92401,4.7831 -4.81126,3.7845 -2.42034,15.1544 8.24727,39.2194 4.14686,9.3549 10.92665,24.6589 15.0662,34.0089 4.13955,9.35 8.53029,19.25 9.7572,22 1.22691,2.75 2.817,6.4875 3.53352,8.3056 0.74297,1.8852 1.6782,2.9302 2.17648,2.432 0.48054,-0.4806 6.92516,-19.0156 14.32137,-41.1891 7.39622,-22.1734 14.07998,-41.0428 14.85281,-41.9319 2.0174,-2.321 5.66338,-12.6788 5.66338,-16.089 0,-7.835 -4.19285,-11.0276 -14.48246,-11.0276 -8.94173,0 -13.51754,-1.9613 -13.51754,-5.794 0,-6.2235 -0.11368,-6.206 40.29356,-6.206 35.19756,0 36.67672,0.076 37.67126,1.9343 2.93857,5.4907 0.38329,8.7651 -7.96482,10.2062 -13.57791,2.3438 -19.3898,7.9847 -25.97832,25.2142 -2.34405,6.1299 -5.73352,14.9703 -7.53215,19.6453 -1.79863,4.675 -4.71325,12.325 -6.47694,17 -3.30705,8.766 -8.81382,23.1491 -14.54882,38 -6.99501,18.1137 -14.71183,38.6785 -15.94784,42.5 -0.71156,2.2 -2.53243,6.7 -4.04636,10 -1.51393,3.3 -3.30016,8.025 -3.9694,10.5 l -1.2168,4.5 -8.89169,0.2543 c -5.65216,0.1616 -9.77496,-0.2028 -11.31608,-1 z m 150.53778,-5.3194 c -0.91535,-2.3854 -0.7113,-46.7324 0.2218,-48.2024 0.62256,-0.9809 6.55687,-1.2071 26.23468,-1 l 25.43014,0.2675 0,25 0,25 -25.63662,0.2667 c -22.72427,0.2363 -25.7063,0.085 -26.25,-1.3318 z m 0,-123 c -0.91535,-2.3854 -0.7113,-46.7324 0.2218,-48.2024 0.62256,-0.9809 6.55687,-1.2071 26.23468,-1 l 25.43014,0.2675 0,25 0,25 -25.63662,0.2667 c -22.72427,0.2363 -25.7063,0.085 -26.25,-1.3318 z"
         id="path3028"
         inkscape:connector-curvature="0" />
      <path
         style="fill:#9f9f9f"
         d="m 647.0756,1534.545 c -1.7365,-0.8984 -3.81984,-4.5173 -7.3425,-12.7543 -5.65152,-13.2149 -14.34649,-33.3005 -24.67509,-57 -3.95503,-9.075 -7.57524,-17.4 -8.04491,-18.5 -0.46968,-1.1 -3.99091,-9.2 -7.82498,-18 -10.15393,-23.3055 -15.67167,-36.3728 -17.60196,-41.6856 -4.03812,-11.1144 -13.74965,-18.7592 -23.88161,-18.7993 -2.68289,-0.011 -4.51496,-0.7346 -6.25,-2.4696 -2.66452,-2.6646 -3.02687,-4.6076 -1.41937,-7.6112 1.00201,-1.8723 2.61812,-1.9343 50.41822,-1.9343 27.16066,0 50.09483,0.2731 50.96481,0.607 2.22309,0.8531 2.00046,5.9743 -0.36243,8.3372 -1.06933,1.0693 -3.65683,2.2143 -5.75,2.5444 -6.10726,0.9631 -11.36281,2.7684 -13.92401,4.7831 -4.81126,3.7845 -2.42034,15.1544 8.24727,39.2194 4.14686,9.3549 10.92665,24.6589 15.0662,34.0089 4.13955,9.35 8.53029,19.25 9.7572,22 1.22691,2.75 2.817,6.4875 3.53352,8.3056 0.74297,1.8852 1.6782,2.9302 2.17648,2.432 0.48054,-0.4806 6.92516,-19.0156 14.32137,-41.1891 7.39622,-22.1734 14.07998,-41.0428 14.85281,-41.9319 2.0174,-2.321 5.66338,-12.6788 5.66338,-16.089 0,-7.835 -4.19285,-11.0276 -14.48246,-11.0276 -8.94173,0 -13.51754,-1.9613 -13.51754,-5.794 0,-6.2235 -0.11368,-6.206 40.29356,-6.206 35.19756,0 36.67672,0.076 37.67126,1.9343 2.93857,5.4907 0.38329,8.7651 -7.96482,10.2062 -13.57791,2.3438 -19.3898,7.9847 -25.97832,25.2142 -2.34405,6.1299 -5.73352,14.9703 -7.53215,19.6453 -1.79863,4.675 -4.71325,12.325 -6.47694,17 -3.30705,8.766 -8.81382,23.1491 -14.54882,38 -6.99501,18.1137 -14.71183,38.6785 -15.94784,42.5 -0.71156,2.2 -2.53243,6.7 -4.04636,10 -1.51393,3.3 -3.30016,8.025 -3.9694,10.5 l -1.2168,4.5 -8.89169,0.2543 c -5.65216,0.1616 -9.77496,-0.2028 -11.31608,-1 z M 799,1505.2907 l 0,-24.5349 24.75,0.2674 24.75,0.2675 0,24 0,24 -24.75,0.2675 -24.75,0.2674 0,-24.5349 z m 0,-123 0,-24.5349 24.75,0.2674 24.75,0.2675 0,24 0,24 -24.75,0.2675 -24.75,0.2674 0,-24.5349 z"
         id="path3026"
         inkscape:connector-curvature="0" />
      <path
         style="fill:#fd9802"
         d="m 646.74011,1532.8009 c -1.44204,-1.1343 -2.9156,-3.0631 -3.27457,-4.2863 -0.86828,-2.9585 -8.76133,-21.6695 -19.49915,-46.2239 -4.81038,-11 -11.76517,-26.975 -15.4551,-35.5 -3.68992,-8.525 -9.63719,-22.25 -13.21614,-30.5 -3.57895,-8.25 -7.32405,-17.025 -8.32244,-19.5 -5.38828,-13.3574 -8.16422,-18.3159 -12.75039,-22.7753 -5.22652,-5.082 -12.26392,-8.2379 -18.351,-8.2296 -3.09138,0 -3.81273,-0.4394 -4.87169,-2.996 -2.5763,-6.2197 -4.11394,-6.0457 50.8805,-5.7584 l 49.61987,0.2593 0.33036,2.3325 c 0.47232,3.3347 -2.49712,6.1675 -6.46511,6.1675 -3.78384,0 -10.55447,2.4246 -14.61525,5.2338 -2.34331,1.621 -2.74747,2.5948 -2.7329,6.5843 0.0347,9.5129 2.91436,17.6512 17.86991,50.5032 4.46215,9.8018 8.11299,18.0776 8.11299,18.3908 0,1.9253 15.50948,34.2847 16.30515,34.0195 0.53734,-0.1791 7.15177,-18.7545 14.69875,-41.2786 7.54697,-22.5242 15.19748,-43.744 17.00113,-47.1551 3.76716,-7.1247 4.91248,-14.6686 2.94728,-19.413 -1.88168,-4.5428 -7.56158,-6.8355 -17.00231,-6.8629 -4.51053,-0.013 -8.0331,-0.5051 -8.75,-1.222 -1.66087,-1.6609 -1.50009,-4.3571 0.37143,-6.2286 1.37029,-1.3703 6.17294,-1.5714 37.52144,-1.5714 l 35.95001,0 1.08144,2.3735 c 1.42003,3.1166 -0.3809,6.6225 -3.4095,6.6373 -6.46843,0.032 -18.19563,5.4046 -22.25257,10.1954 -2.86973,3.3887 -7.71639,13.2234 -10.00036,20.2922 -0.71111,2.2009 -3.82146,10.5266 -6.9119,18.5016 -3.09043,7.975 -7.22903,18.775 -9.19687,24 -3.31644,8.8058 -8.20602,21.587 -15.30239,40 -1.58978,4.125 -5.13852,13.575 -7.8861,21 -2.74759,7.425 -5.99249,15.75 -7.21091,18.5 -1.21842,2.75 -3.00456,7.475 -3.9692,10.5 l -1.7539,5.5 -8.43431,0.2863 c -7.26929,0.2467 -8.79647,0 -11.0562,-1.7761 z M 799,1505.2907 l 0,-24.5349 24.75,0.2674 24.75,0.2675 0,24 0,24 -24.75,0.2675 -24.75,0.2674 0,-24.5349 z m 0,-123 0,-24.5349 24.75,0.2674 24.75,0.2675 0,24 0,24 -24.75,0.2675 -24.75,0.2674 0,-24.5349 z"
         id="path3024"
         inkscape:connector-curvature="0" />
      <path
         style="fill:#5b5b5b"
         d="m 646.74011,1532.8009 c -1.44204,-1.1343 -2.9156,-3.0631 -3.27457,-4.2863 -0.86828,-2.9585 -8.76133,-21.6695 -19.49915,-46.2239 -4.81038,-11 -11.76517,-26.975 -15.4551,-35.5 -3.68992,-8.525 -9.63719,-22.25 -13.21614,-30.5 -3.57895,-8.25 -7.32405,-17.025 -8.32244,-19.5 -5.38828,-13.3574 -8.16422,-18.3159 -12.75039,-22.7753 -5.22652,-5.082 -12.26392,-8.2379 -18.351,-8.2296 -3.09138,0 -3.81273,-0.4394 -4.87169,-2.996 -2.5763,-6.2197 -4.11394,-6.0457 50.8805,-5.7584 l 49.61987,0.2593 0.33036,2.3325 c 0.47232,3.3347 -2.49712,6.1675 -6.46511,6.1675 -3.78384,0 -10.55447,2.4246 -14.61525,5.2338 -2.34331,1.621 -2.74747,2.5948 -2.7329,6.5843 0.0347,9.5129 2.91436,17.6512 17.86991,50.5032 4.46215,9.8018 8.11299,18.0776 8.11299,18.3908 0,1.9253 15.50948,34.2847 16.30515,34.0195 0.53734,-0.1791 7.15177,-18.7545 14.69875,-41.2786 7.54697,-22.5242 15.19748,-43.744 17.00113,-47.1551 3.76716,-7.1247 4.91248,-14.6686 2.94728,-19.413 -1.88168,-4.5428 -7.56158,-6.8355 -17.00231,-6.8629 -4.51053,-0.013 -8.0331,-0.5051 -8.75,-1.222 -1.66087,-1.6609 -1.50009,-4.3571 0.37143,-6.2286 1.37029,-1.3703 6.17294,-1.5714 37.52144,-1.5714 l 35.95001,0 1.08144,2.3735 c 1.42003,3.1166 -0.3809,6.6225 -3.4095,6.6373 -6.46843,0.032 -18.19563,5.4046 -22.25257,10.1954 -2.86973,3.3887 -7.71639,13.2234 -10.00036,20.2922 -0.71111,2.2009 -3.82146,10.5266 -6.9119,18.5016 -3.09043,7.975 -7.22903,18.775 -9.19687,24 -3.31644,8.8058 -8.20602,21.587 -15.30239,40 -1.58978,4.125 -5.13852,13.575 -7.8861,21 -2.74759,7.425 -5.99249,15.75 -7.21091,18.5 -1.21842,2.75 -3.00456,7.475 -3.9692,10.5 l -1.7539,5.5 -8.43431,0.2863 c -7.26929,0.2467 -8.79647,0 -11.0562,-1.7761 z"
         id="path3022"
         inkscape:connector-curvature="0" />
      <path
         style="fill:#030303"
         d="m 648.31609,1532.5997 c -1.29088,-0.624 -3.08903,-3.3565 -4.39739,-6.6823 -4.01002,-10.1935 -27.04298,-63.4524 -50.43774,-116.6267 -3.14574,-7.15 -6.51035,-15.2716 -7.47692,-18.0481 -2.85712,-8.2071 -5.86903,-13.3695 -10.50468,-18.0052 -5.24004,-5.24 -10.12679,-7.5747 -17.49936,-8.3605 -5.31418,-0.5664 -5.5,-0.6876 -5.5,-3.5862 l 0,-3 48.9863,0 c 42.76008,0 49.01967,0.1907 49.24875,1.5 0.49356,2.821 -1.54449,4.3089 -6.89684,5.0352 -10.48132,1.4224 -17.83821,6.6829 -17.83821,12.7552 0,4.3073 4.26918,18.3648 8.41526,27.7096 2.44022,5.5 7.45254,16.75 11.13848,25 3.68594,8.25 7.27578,16.575 7.97742,18.5 2.03999,5.5968 14.48463,32.4055 15.5309,33.4571 0.60579,0.609 1.45175,0.4271 2.32522,-0.5 0.75515,-0.8014 7.09163,-18.7821 14.08106,-39.9571 6.98944,-21.175 14.55682,-42.2769 16.8164,-46.8931 4.54396,-9.283 5.91886,-17.7869 3.73009,-23.0711 -1.87826,-4.5345 -7.99587,-7.0358 -17.20811,-7.0358 -5.19148,0 -7.91908,-0.4305 -8.70153,-1.3733 -1.53737,-1.8524 -0.36998,-4.5259 2.25511,-5.1645 1.17684,-0.2863 17.4397,-0.3949 36.1397,-0.2413 l 34,0.2791 0,2.9123 c 0,2.7621 -0.31464,2.9765 -6.0982,4.1562 -15.11407,3.083 -22.81754,11.0569 -28.9165,29.9315 -0.71088,2.2 -3.40191,9.4 -5.98004,16 -6.89587,17.6533 -12.52304,32.3305 -14.56909,38 -0.99243,2.75 -4.5634,12.2 -7.93548,21 -3.37209,8.8 -7.70803,20.275 -9.63544,25.5 -1.9274,5.225 -5.68767,15.125 -8.35616,22 -2.66849,6.875 -5.09807,13.2875 -5.39906,14.25 -0.45815,1.4651 -1.73285,1.739 -7.82865,1.6823 -4.00476,-0.037 -8.26414,-0.5427 -9.46529,-1.1233 z"
         id="path3020"
         inkscape:connector-curvature="0" />
    </g>
  </g>
</svg>
