<?xml version="1.0" encoding="UTF-8" standalone="no"?>
<!-- Created with Inkscape (http://www.inkscape.org/) -->

<svg
   xmlns:dc="http://purl.org/dc/elements/1.1/"
   xmlns:cc="http://creativecommons.org/ns#"
   xmlns:rdf="http://www.w3.org/1999/02/22-rdf-syntax-ns#"
   xmlns:svg="http://www.w3.org/2000/svg"
   xmlns="http://www.w3.org/2000/svg"
   xmlns:sodipodi="http://sodipodi.sourceforge.net/DTD/sodipodi-0.dtd"
   xmlns:inkscape="http://www.inkscape.org/namespaces/inkscape"
   width="23.9"
   height="47.899998"
   id="svg2"
   version="1.1"
   inkscape:version="0.48.0 r9654"
   sodipodi:docname="vq-icon_small.svg">
  <defs
     id="defs4" />
  <sodipodi:namedview
     id="base"
     pagecolor="#ffffff"
     bordercolor="#666666"
     borderopacity="1.0"
     inkscape:pageopacity="0.0"
     inkscape:pageshadow="2"
     inkscape:zoom="8.4328125"
     inkscape:cx="46.332536"
     inkscape:cy="21.791782"
     inkscape:document-units="px"
     inkscape:current-layer="layer1"
     showgrid="false"
     fit-margin-top="3"
     fit-margin-left="3"
     fit-margin-right="3"
     fit-margin-bottom="3"
     inkscape:window-width="1280"
     inkscape:window-height="940"
     inkscape:window-x="-8"
     inkscape:window-y="-8"
     inkscape:window-maximized="1" />
  <metadata
     id="metadata7">
    <rdf:RDF>
      <cc:Work
         rdf:about="">
        <dc:format>image/svg+xml</dc:format>
        <dc:type
           rdf:resource="http://purl.org/dc/dcmitype/StillImage" />
        <dc:title></dc:title>
      </cc:Work>
    </rdf:RDF>
  </metadata>
  <g
     inkscape:label="Ebene 1"
     inkscape:groupmode="layer"
     id="layer1"
     transform="translate(-109.40714,-629.76934)">
    <g
       id="g3068"
       transform="matrix(0.02982157,0,0,0.02984363,116.74772,634.27093)">
      <path
         style="fill:#f5f5f5"
         d="m -56.00858,1352.6272 c -2.2,-0.455 -6.025,-0.8654 -8.5,-0.912 -6.373039,-0.1199 -21.927163,-6.5564 -32.58064,-13.4824 -17.11438,-11.1263 -34.29347,-31.0857 -41.35482,-48.0478 -3.46971,-8.3346 -4.56808,-12.8202 -6.01201,-24.5523 -1.46091,-11.87 -1.46091,-411.02616 0,-422.8962 1.54309,-12.53776 2.63107,-16.58201 6.92705,-25.7494 5.33508,-11.38476 12.86342,-21.93672 22.75805,-31.8984 13.48004,-13.57138 25.419838,-21.23313 42.448628,-27.2392 18.553511,-6.54385 4.568245,-6.1649 227.517122,-6.1649 198.15005,0 202.69122,0.0425 212.23961,1.98838 28.59225,5.82673 52.26908,21.33107 69.64937,45.60862 9.6097,13.42325 14.83366,27.52241 16.452,44.403 1.43994,15.0197 0.72417,418.1294 -0.76085,428.5 -3.98292,27.8146 -32.59291,62.2835 -61.78311,74.4355 -8.33464,3.4697 -12.82022,4.568 -24.5523,6.012 -10.34214,1.2728 -416.293409,1.2682 -422.4481,0 z m 0,-802.43152 c -16.251732,-3.03774 -33.641977,-10.33111 -45.39104,-19.03674 -23.86745,-17.68493 -40.12407,-42.79376 -42.71484,-65.97434 -1.35881,-12.15776 -1.1578,-419.855545 0.2125,-431.000003 2.46774,-20.0698 16.53835,-43.31166 36.58716,-60.434749 13.335183,-11.389185 31.480625,-20.547097 44.30622,-22.361125 10.411523,-1.472586 415.01078,-2.175465 428,-0.743531 12.81775,1.413031 17.20821,2.443752 26.0004,6.103948 10.97445,4.568678 22.02743,12.312785 32.62441,22.857824 15.69128,15.614369 26.83037,35.317852 29.1587,51.577633 1.48502,10.370624 2.20079,413.480303 0.76085,428.500003 -1.61834,16.88059 -6.8423,30.97975 -16.452,44.403 -17.38029,24.27755 -41.05712,39.78189 -69.64937,45.60862 -9.55816,1.94783 -13.90432,1.98654 -213.10007,1.89813 -162.98072,-0.0723 -204.732373,-0.34996 -210.34292,-1.39867 z m 165.97521,-187.2306 c 0.38378,-2.04574 1.75575,-5.53324 3.04881,-7.75 1.29307,-2.21677 3.47308,-7.48025 4.84447,-11.69664 1.37139,-4.21639 3.1995,-9.03154 4.06247,-10.70034 0.86297,-1.6688 1.56904,-3.90143 1.56904,-4.9614 0,-1.05996 0.61884,-2.44081 1.37521,-3.06853 0.75637,-0.62773 1.64848,-2.82033 1.98247,-4.87245 0.33399,-2.05212 1.68487,-5.75612 3.00196,-8.23112 1.31709,-2.475 2.72694,-6.075 3.13301,-8 0.40606,-1.925 1.07966,-3.95 1.49689,-4.5 0.41723,-0.55 2.0064,-4.6 3.53148,-9 1.52508,-4.4 3.38174,-9.21515 4.12592,-10.70034 0.74418,-1.48519 1.35306,-3.59054 1.35306,-4.67857 0,-1.08803 0.65146,-2.62969 1.44769,-3.42592 1.5218,-1.5218 5.55231,-12.53463 5.55231,-15.17095 0,-0.84638 1.08409,-3.67308 2.40909,-6.28155 3.22546,-6.34982 6.59091,-14.78442 6.59091,-16.51833 0,-0.77269 1.30749,-4.06427 2.90554,-7.31462 1.59805,-3.25034 3.23305,-7.48472 3.63333,-9.40972 0.40028,-1.925 1.56778,-5.06834 2.59446,-6.98519 1.02667,-1.91686 1.88098,-4.39186 1.89847,-5.5 0.0175,-1.10815 0.6925,-2.88832 1.5,-3.95594 0.80751,-1.06762 1.4682,-2.7466 1.4682,-3.73107 0,-0.98446 1.33374,-4.61095 2.96387,-8.05887 1.63012,-3.44791 3.96104,-9.58929 5.17981,-13.6475 1.21877,-4.05821 2.97981,-8.10821 3.91342,-9 0.9336,-0.89179 2.61147,-3.42143 3.7286,-5.62143 2.63355,-5.18635 6.20984,-8.37607 14.2143,-12.6778 7.52958,-4.04652 11.22809,-5.19691 15.72713,-4.89178 5.97655,0.40535 7.27287,-0.57458 7.27287,-5.49781 l 0,-4.43261 -48.41821,0 c -26.63002,0 -49.13002,0.27314 -50,0.60699 -2.35938,0.90538 -2.10045,7.04506 0.35247,8.35783 1.06384,0.56935 6.48177,1.03518 12.03984,1.03518 11.31183,0 17.15141,1.98659 19.22641,6.54073 0.61629,1.3526 1.53255,2.45927 2.03615,2.45927 1.59581,0 0.20136,15.20565 -2.06296,22.49539 -1.19509,3.84747 -3.0641,7.67247 -4.15335,8.5 -1.10647,0.84061 -2.88349,4.59379 -4.02668,8.50461 -1.12542,3.85 -2.53684,8.35 -3.1365,10 -4.73129,13.01848 -5.77753,16.22946 -5.81471,17.84571 -0.0233,1.01514 -0.78172,3.26514 -1.68525,5 -2.76132,5.30196 -3.00721,5.9714 -4.2808,11.65429 -0.67793,3.025 -2.50308,8.875 -4.0559,13 -5.40124,14.34822 -5.7852,15.52606 -6.51967,20 -0.40632,2.475 -1.7661,6.3 -3.02176,8.5 -1.25565,2.2 -2.58644,5.575 -2.95731,7.5 -1.2987,6.74089 -3.75056,12.10259 -5.39003,11.78685 -1.74454,-0.33596 -2.58254,-1.78722 -7.6722,-13.28685 -1.94741,-4.4 -4.13944,-9.125 -4.87118,-10.5 -0.73173,-1.375 -1.89535,-4.3 -2.58582,-6.5 -0.69047,-2.2 -1.83507,-4.675 -2.54357,-5.5 -0.7085,-0.825 -2.27636,-4.57072 -3.48414,-8.32381 -1.20778,-3.7531 -2.81588,-7.0617 -3.57356,-7.35245 -0.75768,-0.29075 -2.29643,-3.6139 -3.41945,-7.38477 -1.12301,-3.77087 -2.60634,-7.43727 -3.29629,-8.14755 -1.30099,-1.33934 -5.68553,-11.35415 -5.68553,-12.98644 0,-0.51057 -1.62715,-4.38806 -3.61589,-8.61665 -1.98874,-4.22858 -4.29376,-9.26333 -5.12228,-11.18833 -0.82851,-1.925 -2.14453,-4.80562 -2.92448,-6.40138 -2.34068,-4.78898 -5.34709,-14.39052 -6.00198,-19.16848 -0.33809,-2.46661 -1.00185,-4.72401 -1.47504,-5.01646 -1.49062,-0.92125 -0.98223,-12.298 0.66167,-14.80691 0.8371,-1.27757 3.4246,-3.11026 5.75,-4.07264 2.3254,-0.96238 5.42243,-2.37626 6.88229,-3.14195 1.45986,-0.7657 4.99182,-1.39218 7.84879,-1.39218 4.52155,0 5.57036,-0.40235 8.09571,-3.10576 1.59567,-1.70816 2.90121,-3.95816 2.90121,-5 0,-1.84014 -1.91353,-1.89424 -67,-1.89424 l -67,0 0,3.06574 c 0,5.80573 1.36789,6.93426 8.40497,6.93426 5.47012,0 7.41,0.56001 14.21481,4.10357 8.91649,4.6432 11.05114,6.28422 11.97952,9.20929 0.3577,1.12701 1.92956,3.81499 3.49303,5.9733 2.85061,3.93515 6.90767,13.4926 6.90767,16.27279 0,0.81616 1.08385,3.16178 2.40856,5.21249 1.32471,2.05071 2.72018,5.30356 3.10105,7.22856 0.38087,1.925 1.99702,5.5644 3.59144,8.08755 1.59442,2.52315 2.89895,5.27223 2.89895,6.10908 0,0.83684 1.3443,4.17244 2.98733,7.41245 1.64304,3.24001 2.99304,6.47677 3,7.1928 0.007,0.71604 0.89124,2.96604 1.96504,5 1.0738,2.03397 2.7613,5.83393 3.75,8.44437 0.9887,2.61044 2.12256,4.74794 2.5197,4.75 0.39713,0.002 1.46489,2.59125 2.37278,5.75375 0.9079,3.1625 3.32372,9.125 5.3685,13.25 2.04478,4.125 4.30389,9.3 5.02025,11.5 0.71637,2.2 2.58811,6.42585 4.15944,9.39077 1.57133,2.96492 2.85696,6.07854 2.85696,6.91914 0,0.84061 1.35,3.92045 3,6.84408 1.65,2.92364 3,5.75232 3,6.28596 0,0.91146 4.64994,11.53488 7.46729,17.06005 0.70113,1.375 1.80457,4.14769 2.4521,6.16154 0.64753,2.01385 2.50556,6.2587 4.12897,9.43302 1.6234,3.17431 2.95164,6.30788 2.95164,6.9635 0,0.65561 2.025,5.55501 4.5,10.88755 2.475,5.33254 4.5,10.52377 4.5,11.53606 0,1.0123 1.38453,3.00554 3.07673,4.42944 2.92999,2.46542 3.64005,2.58889 14.8887,2.58889 l 11.81199,0 0.69779,-3.71952 z m 242.52479,-33.78048 0,-33.5 -33.5,0 -33.5,0 0,33.5 0,33.5 33.5,0 33.5,0 0,-33.5 z m 0,-164 0,-32.5 -33.5,0 -33.5,0 0,32.5 0,32.5 33.5,0 33.5,0 0,-32.5 z"
         id="path3110"
         inkscape:connector-curvature="0" />
      <path
         style="fill:#e7e7e7"
         d="m -60.50858,1352.1061 c -17.311695,-2.665 -37.347522,-13.1581 -52.36793,-27.426 -17.63343,-16.7501 -28.75459,-37.5787 -31.5275,-59.0474 -0.77438,-5.9955 -1.10457,-69.2406 -1.10457,-211.5739 0,-218.19564 -0.0582,-215.54157 5.00395,-228.38422 14.55334,-36.92213 46.849195,-64.38386 84.006932,-71.43256 7.263493,-1.37786 31.646688,-1.55742 211.489118,-1.55742 220.19208,0 210.04093,-0.23475 225.98758,5.22613 8.81593,3.01899 20.88927,9.16265 28.41324,14.4584 13.269,9.3394 30.24808,29.27487 35.61433,41.81547 5.26688,12.3084 6.68438,16.98139 8.01545,26.42407 2.2567,16.00925 2.19796,411.85113 -0.0634,426.97473 -6.2176,41.5831 -44.94257,79.6266 -86.51913,84.9966 -13.35087,1.7244 -415.568134,1.278 -426.9481,-0.4739 z m 5,-802.56036 c -36.828936,-6.06036 -70.65243,-33.53453 -84.01902,-68.24703 -6.19053,-16.07657 -5.98098,-7.97924 -5.98098,-231.11411 0,-178.325663 0.18937,-204.421674 1.5498,-213.573868 4.15598,-27.958852 25.2476,-57.271983 52.635681,-73.153045 12.451827,-7.220231 21.237547,-10.494176 32.801355,-12.223225 9.100263,-1.360694 35.145634,-1.549865 213.387404,-1.549865 142.33324,0 205.57835,0.330186 211.57386,1.10457 34.25314,4.424163 67.67147,31.484519 81.47597,65.974839 6.87589,17.179278 6.57593,6.577482 6.57593,232.422664 0,220.17892 0.0859,216.48996 -5.35601,229.99793 -4.80251,11.92083 -5.92637,14.12964 -11.37033,22.34708 -16.36478,24.70199 -42.41417,42.11888 -71.14655,47.56932 -7.45847,1.41485 -30.10141,1.57114 -212.48758,1.4667 -116.46917,-0.0667 -206.501576,-0.50559 -209.63953,-1.02196 z m 166,-184.72037 c 0,-1.57258 1.41908,-5.51008 3.1535,-8.75 1.73443,-3.23992 3.50363,-7.24077 3.93156,-8.89077 0.90997,-3.5086 3.43521,-10.52942 5.57504,-15.5 0.82871,-1.925 2.08414,-4.8518 2.78984,-6.50401 0.7057,-1.6522 1.62324,-4.5772 2.03898,-6.5 0.41574,-1.92279 1.82581,-5.42446 3.13349,-7.78147 1.30767,-2.35702 2.38036,-5.05702 2.38375,-6 0.003,-0.94299 0.64433,-2.93781 1.42431,-4.43293 0.77998,-1.49513 2.62171,-6.22013 4.09272,-10.5 1.47102,-4.27988 3.30508,-9.1996 4.0757,-10.93272 0.77061,-1.73312 1.40111,-3.81552 1.40111,-4.62755 0,-0.81204 0.675,-2.03663 1.5,-2.72132 0.825,-0.68469 1.5,-2.06323 1.5,-3.06343 0,-1.00019 0.3738,-2.04955 0.83066,-2.33191 0.45686,-0.28235 1.40367,-3.12141 2.10404,-6.30902 0.70036,-3.1876 2.09168,-7.14564 3.09183,-8.79564 2.00466,-3.30722 4.39818,-9.5128 6.42046,-16.64607 0.72443,-2.55534 1.9904,-5.93034 2.81326,-7.5 1.65895,-3.16456 2.6715,-5.68242 4.96813,-12.35393 3.08684,-8.96701 4.07295,-11.54686 5.41027,-14.15429 0.74874,-1.45986 1.36135,-3.35216 1.36135,-4.2051 0,-0.85295 1.30028,-4.38351 2.88951,-7.84571 1.58923,-3.46219 3.66819,-8.9949 4.61991,-12.2949 0.95171,-3.3 3.25143,-8.2539 5.11048,-11.00866 1.85906,-2.75476 3.3801,-5.47594 3.3801,-6.04705 0,-2.94474 8.34461,-8.55093 23.1134,-15.52838 0.88737,-0.41923 3.41,-0.52127 5.60584,-0.22674 6.03812,0.80988 8.28076,-0.84686 8.28076,-6.11736 0,-3.05128 -0.47425,-4.53982 -1.58179,-4.96482 -2.8543,-1.0953 -96.39723,-0.68859 -98.48395,0.42819 -1.38219,0.73973 -1.93203,2.09546 -1.92646,4.75 0.0108,5.12501 2.72129,6.21482 15.45717,6.21482 11.34686,0 15.71703,1.54485 18.68977,6.60681 1.88598,3.21144 2.49415,15.20127 0.92098,18.15676 -0.50836,0.95504 -1.48676,3.94508 -2.17423,6.64453 -0.68747,2.69946 -2.27438,5.79884 -3.52646,6.88751 -1.25209,1.08868 -2.57565,3.38003 -2.94125,5.0919 -0.3656,1.71187 -1.00409,3.56249 -1.41886,4.11249 -0.41478,0.55 -1.07328,2.76785 -1.46334,4.92856 -0.39006,2.16071 -1.52047,5.76071 -2.51202,8 -2.32108,5.24189 -3.7227,9.31978 -4.49281,13.07144 -0.33869,1.65 -1.22789,4.35 -1.976,6 -3.07901,6.79098 -3.58139,8.21795 -4.57677,13 -1.01292,4.86637 -2.114,8.38153 -4.2287,13.5 -0.56808,1.375 -1.36663,3.4 -1.77456,4.5 -0.40793,1.1 -1.19719,3.14777 -1.75391,4.55059 -0.55672,1.40283 -1.56495,5.22783 -2.24051,8.5 -0.67556,3.27218 -2.23018,7.75086 -3.45471,9.95263 -1.22453,2.20177 -2.54062,5.6781 -2.92466,7.72518 -0.38403,2.04708 -1.35507,5.29396 -2.15785,7.2153 -1.73396,4.14995 -3.70184,3.87712 -5.52187,-0.76556 -0.68524,-1.74797 -3.20144,-7.37718 -5.59155,-12.50935 -2.39012,-5.13216 -4.34566,-9.54047 -4.34566,-9.79623 0,-0.25577 -1.50717,-3.70673 -3.34927,-7.6688 -1.84209,-3.96207 -3.67713,-8.55376 -4.07785,-10.20376 -0.40073,-1.65 -1.77925,-4.38094 -3.06339,-6.06876 -1.28414,-1.68782 -2.86088,-5.06282 -3.50387,-7.5 -0.64299,-2.43718 -2.23838,-6.2791 -3.54532,-8.5376 -1.30693,-2.25849 -3.30757,-6.53349 -4.44585,-9.5 -2.60267,-6.78285 -3.00304,-7.70647 -7.40481,-17.08197 -1.9853,-4.22859 -3.60964,-8.36453 -3.60964,-9.19099 0,-0.82645 -0.41456,-1.75886 -0.92124,-2.072 -0.50668,-0.31315 -1.67928,-2.70221 -2.60578,-5.30902 -0.92649,-2.60681 -2.05837,-5.63966 -2.51527,-6.73966 -1.19879,-2.88608 -3.07367,-13.0639 -3.64667,-19.79597 -0.47964,-5.63527 -0.39178,-5.89173 3.16902,-9.25 2.01429,-1.89972 4.6428,-3.46834 5.84114,-3.48583 1.19834,-0.0175 3.05231,-0.6925 4.11993,-1.5 1.07569,-0.81362 4.06414,-1.4682 6.70295,-1.4682 6.05549,0 8.93437,-1.32917 11.1174,-5.13288 2.32434,-4.04994 2.19037,-5.71958 -0.51148,-6.37398 -1.2375,-0.29972 -31.725,-0.4208 -67.75,-0.26905 l -65.5,0.27591 0.0823,4.19544 c 0.12129,6.18476 1.52183,7.30456 9.13587,7.30456 5.9436,0 8.04501,0.60792 14.28185,4.13159 0.825,0.46611 3.22154,1.77869 5.32564,2.91685 2.37412,1.28422 4.36033,3.34906 5.23485,5.44209 0.77506,1.85499 1.8761,3.66126 2.44674,4.01394 1.71229,1.05825 6.77949,11.83418 7.55068,16.05729 0.39554,2.16603 1.60592,5.20166 2.68974,6.74585 1.08382,1.54418 2.77485,5.46393 3.75784,8.71054 0.983,3.24661 2.7339,7.10637 3.89089,8.57725 1.15699,1.47087 2.10531,3.40113 2.10738,4.28946 0.002,0.88833 1.35038,4.31514 2.99624,7.61514 1.64586,3.3 2.99417,6.68737 2.99624,7.52749 0.002,0.84013 0.66306,2.46878 1.46887,3.61923 0.80581,1.15045 2.44755,4.73808 3.64831,7.97251 1.20076,3.23442 3.01647,6.95396 4.03489,8.26563 1.01843,1.31167 1.85169,3.24886 1.85169,4.30486 0,2.06518 2.42788,7.89715 7.08523,17.01932 1.60312,3.13997 2.91697,6.28997 2.91965,7 0.003,0.71003 1.57769,4.35577 3.5,8.10166 1.92232,3.74588 3.49512,7.49023 3.49512,8.32077 0,0.83053 1.30922,4.06572 2.90937,7.1893 1.60016,3.12358 4.37911,9.05423 6.17544,13.17923 1.79633,4.125 4.31212,9.72585 5.59063,12.44634 1.27851,2.72049 2.32456,5.50528 2.32456,6.18841 0,0.68314 1.35,3.70194 3,6.70846 1.65,3.00653 3,6.23584 3,7.17627 0,0.94042 1.0632,3.79576 2.36267,6.34519 2.30665,4.52543 5.32725,11.56585 7.58293,17.67428 1.97574,5.35035 5.05667,6.40458 18.8044,6.43444 l 12.24998,0.0266 0,-2.85923 z m 243,-35.64077 0,-34.5 -34.5,0 -34.5,0 0,33.83333 c 0,18.60834 0.3,34.13334 0.66667,34.5 0.36666,0.36667 15.89166,0.66667 34.5,0.66667 l 33.83333,0 0,-34.5 z m 0,-164 0,-33.5 -34.5,0 -34.5,0 0,33.5 0,33.5 34.5,0 34.5,0 0,-33.5 z"
         id="path3108"
         inkscape:connector-curvature="0" />
      <path
         style="fill:#d3d3d3"
         d="m -54.50858,1352.9753 c -45.51789,-7.9553 -81.21825,-42.443 -89.4588,-86.42 -1.39916,-7.4668 -1.54057,-30.8547 -1.30518,-215.8724 l 0.26398,-207.4983 2.31786,-8 c 11.78945,-40.69084 45.861124,-72.29175 86.193022,-79.94258 7.263493,-1.37786 31.646688,-1.55742 211.489118,-1.55742 181.28081,0 204.18247,0.17137 211.62711,1.5836 41.89617,7.94756 73.67888,38.1829 85.58313,81.4164 1.69343,6.15014 1.78976,17.8302 1.78976,217 l 0,210.5 -2.25272,8.1773 c -9.81767,35.6376 -34.62209,63.1104 -67.96874,75.2804 -17.54982,6.4049 -3.95153,6.0559 -230.13901,5.9061 -113.10174,-0.075 -206.76453,-0.3328 -208.13953,-0.5731 z m -1,-804.42956 c -24.033783,-3.95486 -49.08598,-18.31213 -65.0468,-37.27794 -12.21511,-14.51488 -21.16864,-33.83417 -23.90625,-51.5832 -0.85535,-5.54556 -1.07734,-61.31215 -0.85188,-214 l 0.30493,-206.500003 2.31786,-8 c 2.90726,-10.034298 9.69376,-24.492191 15.82736,-33.718439 6.03299,-9.074914 20.06143,-23.103352 29.136341,-29.136343 9.226248,-6.133598 23.684141,-12.920101 33.718439,-15.82736 l 8,-2.317858 207.49832,-0.263983 c 228.38327,-0.290553 214.63486,-0.633466 232.24273,5.79261 33.38642,12.184533 58.18387,39.639398 68.00623,75.294097 l 2.25272,8.177276 0,210.500003 c 0,199.1698 -0.0963,210.84986 -1.78976,217 -5.66582,20.57695 -14.86267,36.96308 -28.56095,50.88735 -15.79627,16.05685 -35.03816,26.35876 -57.02218,30.52905 -7.45847,1.41485 -30.10141,1.57114 -212.48758,1.4667 C 37.66178,549.501 -52.370626,549.06211 -55.50858,548.54574 z M 111.65891,363.95866 c 0.396,-2.32427 1.9206,-6.27461 3.38801,-8.77854 1.4674,-2.50393 3.03691,-6.00226 3.48781,-7.77406 0.93361,-3.66863 3.40003,-10.57218 5.61679,-15.72146 0.82871,-1.925 2.08414,-4.8518 2.78984,-6.50401 0.7057,-1.6522 1.62324,-4.5772 2.03898,-6.5 0.41574,-1.92279 1.82581,-5.42446 3.13349,-7.78147 1.30767,-2.35702 2.38036,-5.05702 2.38375,-6 0.003,-0.94299 0.64433,-2.93781 1.42431,-4.43293 0.77998,-1.49513 2.62171,-6.22013 4.09272,-10.5 1.47102,-4.27988 3.30508,-9.1996 4.0757,-10.93272 0.77061,-1.73312 1.40111,-3.81552 1.40111,-4.62755 0,-0.81204 0.675,-2.03663 1.5,-2.72132 0.825,-0.68469 1.5,-2.06323 1.5,-3.06343 0,-1.00019 0.3738,-2.04955 0.83066,-2.33191 0.45686,-0.28235 1.41125,-3.10776 2.12087,-6.27868 0.70962,-3.17091 1.93328,-6.74673 2.71924,-7.94626 1.70641,-2.60432 4.99156,-11.07828 6.79431,-17.52579 0.71448,-2.55534 2.09139,-6.15534 3.05978,-8 3.12321,-5.94929 3.47514,-6.80041 3.47514,-8.40444 0,-0.8677 1.125,-4.03715 2.5,-7.0432 1.375,-3.00606 2.51431,-6.23972 2.5318,-7.18593 0.0175,-0.9462 0.6925,-2.59387 1.5,-3.66149 0.80751,-1.06762 1.4682,-2.73492 1.4682,-3.7051 0,-0.97018 1.30028,-4.59667 2.88951,-8.05887 1.58923,-3.46219 3.66819,-8.9949 4.61991,-12.2949 0.95171,-3.3 3.25143,-8.2539 5.11048,-11.00866 1.85906,-2.75476 3.3801,-5.47899 3.3801,-6.05383 0,-2.74126 7.23485,-7.4923 22.1134,-14.5216 0.88737,-0.41923 3.46537,-0.51384 5.72889,-0.21024 6.21158,0.83315 9.15771,-1.48109 9.15771,-7.19354 0,-3.36798 -0.4676,-4.69201 -1.93426,-5.47695 -1.25602,-0.6722 -18.71029,-1.03518 -49.77749,-1.03518 -53.92017,0 -52.28825,-0.21795 -52.28825,6.98346 0,5.58086 3.32549,7.01654 16.25251,7.01654 11.47441,0 15.85461,1.50382 18.226,6.25738 1.68755,3.38278 2.07467,14.73051 0.59721,17.50619 -0.50836,0.95504 -1.45791,3.84204 -2.11012,6.41557 -0.65221,2.57353 -2.23795,5.66754 -3.52385,6.87558 -1.2859,1.20804 -2.63831,3.60243 -3.00535,5.32086 -0.36704,1.71843 -1.00671,3.57442 -1.42148,4.12442 -0.41478,0.55 -1.07328,2.76785 -1.46334,4.92856 -0.39006,2.16071 -1.52047,5.76071 -2.51202,8 -2.50704,5.66186 -3.80109,9.48593 -4.59251,13.57144 -0.3729,1.925 -1.01222,3.95 -1.42071,4.5 -0.8114,1.09248 -4.07193,10.81349 -6.54051,19.5 -0.85966,3.025 -2.05586,6.625 -2.65822,8 -0.60236,1.375 -1.42896,3.4 -1.83689,4.5 -0.40793,1.1 -1.19719,3.14777 -1.75391,4.55059 -0.55672,1.40283 -1.54227,5.10381 -2.1901,8.22441 -0.64783,3.1206 -2.20289,7.60159 -3.45567,9.95775 -1.25278,2.35616 -2.60118,6.00776 -2.99644,8.11466 -0.87616,4.67038 -2.61426,8.65259 -3.77655,8.65259 -0.47351,0 -1.36935,-1.2375 -1.99076,-2.75 -0.6214,-1.5125 -3.08676,-6.94376 -5.47856,-12.06947 -2.3918,-5.12571 -4.34873,-9.53402 -4.34873,-9.79624 0,-0.26222 -1.56186,-3.81276 -3.4708,-7.89009 -1.90894,-4.07733 -3.7724,-8.66902 -4.14102,-10.20376 -0.36862,-1.53474 -1.95676,-4.56659 -3.5292,-6.73744 -1.57244,-2.17085 -2.85898,-4.93766 -2.85898,-6.14846 0,-1.2108 -1.39342,-4.83464 -3.09649,-8.05299 -1.70306,-3.21835 -3.96547,-8.10155 -5.02758,-10.85155 -2.47307,-6.4033 -2.92743,-7.44681 -7.26629,-16.68833 -1.9853,-4.22859 -3.60964,-8.36453 -3.60964,-9.19099 0,-0.82645 -0.41456,-1.75886 -0.92124,-2.072 -0.50668,-0.31315 -1.67928,-2.70221 -2.60578,-5.30902 -0.92649,-2.60681 -2.05837,-5.63966 -2.51527,-6.73966 -1.19594,-2.87923 -3.07288,-13.05664 -3.64511,-19.76511 -0.46689,-5.47352 -0.33016,-5.91607 2.70357,-8.75 1.75744,-1.64169 4.16025,-2.9992 5.33959,-3.01669 1.17933,-0.0175 3.01775,-0.6925 4.08537,-1.5 1.09273,-0.8265 4.15219,-1.48369 7,-1.50364 5.91949,-0.0415 8.94245,-1.48154 11.61253,-5.53199 2.4585,-3.7295 2.46235,-6.08604 0.0121,-7.39739 -1.27726,-0.68355 -24.33354,-1.03518 -67.87757,-1.03518 -73.260294,0 -69.004212,-0.41598 -67.8604,6.63249 0.97028,5.97916 3.09649,7.49181 10.20704,7.26162 4.02027,-0.13015 7.14641,0.34469 9.05298,1.3751 1.6017,0.86565 3.58719,1.84937 4.41219,2.18604 4.57938,1.86877 9.51106,5.78367 11.56488,9.18052 4.84318,8.0102 8.2096,14.98052 8.86926,18.36423 0.759,3.89323 2.36167,7.72766 4.1797,10 0.66006,0.825 1.72551,3.525 2.36768,6 0.64216,2.475 2.25902,6.17785 3.59302,8.22856 1.334,2.05071 2.42546,4.22792 2.42546,4.83826 0,0.61033 1.35,4.02637 3,7.59121 1.65,3.56483 3,7.02499 3,7.68923 0,0.66425 0.6593,2.14901 1.46511,3.29946 0.80581,1.15045 2.44755,4.73808 3.64831,7.97251 1.20076,3.23442 3.01647,6.95396 4.03489,8.26563 1.01843,1.31167 1.85169,3.25301 1.85169,4.31408 0,1.85697 2.16164,7.11242 7.73314,18.80106 1.44189,3.025 3.04627,6.625 3.56528,8 0.51901,1.375 2.01419,4.6342 3.32262,7.24267 1.30843,2.60847 2.37879,5.30847 2.37857,6 -2.1e-4,0.69153 1.31241,3.95733 2.91693,7.25733 4.4081,9.06605 7.79863,16.72012 8.60833,19.43315 0.39939,1.33824 1.79468,4.44276 3.10065,6.89894 1.30596,2.45618 2.37448,5.14988 2.37448,5.98599 0,0.83611 1.35,3.91228 3,6.83591 1.65,2.92364 3,5.92126 3,6.66138 0,0.74012 1.12312,3.55944 2.49581,6.26515 1.3727,2.70571 2.4977,5.26188 2.5,5.68038 0.002,0.41849 0.85092,2.66849 1.88582,5 1.03489,2.3315 2.43408,5.68855 3.10931,7.46011 0.67523,1.77156 2.64099,4.13383 4.36837,5.2495 2.79152,1.80297 4.52745,2.00074 15.61443,1.77899 l 12.47375,-0.2495 0.72,-4.22594 z m 242.33251,-34.77406 0,-35 -35,0 -35,0 -0.26346,33.88132 c -0.18938,24.35501 0.0589,34.26979 0.88321,35.26297 0.94262,1.13579 7.2177,1.33486 35.26346,1.11868 l 34.11679,-0.26297 0,-35 z m 0,-164 0,-34 -35,0 -35,0 -0.26397,32.99239 c -0.14519,18.14582 -0.0446,33.56416 0.22359,34.26299 0.38405,1.00081 7.87162,1.21476 35.26398,1.00761 l 34.7764,-0.26299 0,-34 z"
         id="path3106"
         inkscape:connector-curvature="0" />
      <path
         style="fill:#c3c3c3"
         d="m -55.00533,1352.9514 c -1.648212,-0.246 -3.223212,-0.7828 -3.5,-1.1928 -0.276787,-0.4101 -3.482125,-1.4848 -7.122972,-2.3883 -27.56346,-6.8396 -52.773488,-26.7435 -66.731138,-52.6857 -4.12222,-7.6617 -10.14914,-24.1788 -10.14914,-27.8142 0,-1.1105 -0.5625,-2.2066 -1.25,-2.4358 -1.62619,-0.5421 -1.85983,-423.39443 -0.23457,-424.53647 0.55849,-0.39244 1.82898,-3.86353 2.82331,-7.71353 0.99434,-3.85 3.76785,-11.1551 6.16336,-16.23356 15.27322,-32.37906 44.342268,-55.22774 78.508782,-61.70902 7.263662,-1.37789 31.665948,-1.55742 211.692498,-1.55742 198.5861,0 203.71483,0.0475 213.13954,1.97195 28.49207,5.818 52.92868,22.53358 68.67418,46.97578 5.91547,9.18277 11.95933,23.45932 13.9924,33.05227 0.40797,1.925 1.24773,3.82108 1.86613,4.21352 1.57656,1.00046 1.61493,424.53708 0.0386,425.57298 -0.5972,0.3924 -1.825,3.6924 -2.72845,7.3332 -6.83967,27.5635 -26.74356,52.7735 -52.68574,66.7312 -7.6617,4.1222 -24.17875,10.1491 -27.81417,10.1491 -1.11054,0 -2.20664,0.5625 -2.43578,1.25 -0.33137,0.9942 -43.26513,1.2719 -209.83333,1.3571 -115.1792,0.059 -210.765257,-0.094 -212.41347,-0.3403 z m -0.50325,-805.40566 c -41.17918,-6.77621 -76.1785,-38.84247 -86.07445,-78.86114 -0.74804,-3.025 -1.8248,-5.82109 -2.39281,-6.21353 -1.42914,-0.98739 -1.44637,-423.56877 -0.0173,-424.572948 0.55849,-0.392439 1.82898,-3.863525 2.82331,-7.713525 2.2526,-8.721912 9.12369,-23.418205 15.27508,-32.671213 5.98853,-9.008034 19.20693,-22.226435 28.214967,-28.214965 9.253008,-6.151388 23.949301,-13.022484 32.671213,-15.275081 3.85,-0.994335 7.321086,-2.264825 7.713525,-2.823311 1.142044,-1.625261 423.994415,-1.391621 424.536475,0.23457 0.22917,0.6875 1.32529,1.25 2.43583,1.25 3.63542,0 20.15247,6.026923 27.81417,10.149139 25.94218,13.957647 45.84607,39.167679 52.68574,66.731139 0.90345,3.640847 2.13125,6.940813 2.72845,7.333258 1.57637,1.035902 1.538,424.572487 -0.0386,425.572947 -0.6184,0.39244 -1.45816,2.28852 -1.86613,4.21352 -2.03307,9.59295 -8.07693,23.8695 -13.9924,33.05227 -15.7455,24.4422 -40.18211,41.15778 -68.67418,46.97578 -9.437,1.92701 -14.31411,1.96929 -214,1.85505 -116.59052,-0.0667 -206.704782,-0.50557 -209.84288,-1.02196 z m 166.8,-179.06114 c 0.66,-0.66 1.20139,-2.3475 1.20308,-3.75 0.002,-1.4025 1.5767,-5.6742 3.5,-9.49267 1.92331,-3.81846 3.49692,-7.51569 3.49692,-8.21607 0,-0.70037 0.63286,-2.75117 1.40636,-4.55733 3.46895,-8.10021 8.5541,-21.55021 9.18122,-24.28393 0.37851,-1.65 1.07593,-3.49585 1.54983,-4.10189 0.4739,-0.60604 2.02848,-4.20604 3.45462,-8 4.07641,-10.8445 10.50503,-28.69784 11.12578,-30.89811 0.31034,-1.1 1.10604,-2.675 1.76823,-3.5 0.66218,-0.825 2.21513,-4.875 3.451,-9 1.23586,-4.125 3.07003,-9.075 4.07593,-11 2.05552,-3.93366 4.46859,-10.30045 6.44314,-17 0.72946,-2.475 2.50024,-7.10033 3.93509,-10.27851 1.43484,-3.17819 2.6088,-6.26018 2.6088,-6.84887 0,-0.5887 0.64351,-2.48837 1.43002,-4.22149 2.64089,-5.81935 6.56998,-16.29662 6.56998,-17.51943 0,-0.66626 0.8531,-2.88359 1.89578,-4.92741 1.04268,-2.04382 3.22794,-7.79042 4.85614,-12.77023 1.62821,-4.97982 4.37511,-11.00719 6.10423,-13.39417 1.72912,-2.38698 3.14385,-4.86326 3.14385,-5.50284 0,-2.65525 6.64571,-6.94632 21.07188,-13.6059 0.86454,-0.39909 3.56454,-0.50298 6,-0.23087 6.40523,0.71567 9.92812,-2.19974 9.92812,-8.21616 0,-7.78936 2.14482,-7.48412 -52.58765,-7.48412 -47.48985,0 -48.17906,0.0287 -50.82945,2.11345 -2.26584,1.78231 -2.6395,2.76103 -2.38485,6.24657 0.43193,5.9122 4.08263,7.52822 17.15082,7.59195 15.30023,0.0746 18.65113,2.75336 18.65113,14.90993 0,6.45761 -3.48722,17.79082 -6.50417,21.1381 -1.23931,1.375 -3.24252,5.875 -4.45159,10 -1.20907,4.125 -3.48433,10.875 -5.05613,15 -1.57181,4.125 -3.14366,8.94321 -3.49301,10.70714 -0.34935,1.76393 -1.46495,4.92455 -2.4791,7.02361 -1.01415,2.09905 -2.5841,6.73084 -3.48878,10.29286 -1.80233,7.09641 -4.86524,16.23206 -7.5454,22.50543 -0.94672,2.21597 -2.24834,6.48647 -2.89248,9.48999 -0.64414,3.00353 -2.23693,7.71546 -3.53952,10.47096 -1.3026,2.75551 -2.67985,6.67395 -3.06056,8.70764 -0.38071,2.0337 -1.24382,4.45203 -1.91802,5.37406 -1.08744,1.48716 -1.36922,1.29552 -2.49601,-1.69764 -0.6986,-1.85573 -2.64218,-6.29905 -4.31907,-9.87405 -1.6769,-3.575 -4.33672,-9.60834 -5.91072,-13.40741 -1.57401,-3.79908 -3.2486,-7.39908 -3.72132,-8 -0.47272,-0.60093 -1.60699,-3.38523 -2.52061,-6.18735 -0.91362,-2.80212 -2.77316,-6.60205 -4.13232,-8.44428 -1.35915,-1.84224 -2.47119,-4.32368 -2.47119,-5.51432 0,-1.19064 -1.36126,-4.81571 -3.02502,-8.05572 -1.66376,-3.24001 -4.40164,-9.26592 -6.08417,-13.39092 -1.68253,-4.125 -4.1221,-9.75 -5.42126,-12.5 -7.74726,-16.39907 -10.33065,-23.18391 -12.18425,-32 -2.40053,-11.41736 -2.67893,-17.2503 -0.94931,-19.89003 1.86036,-2.83928 9.10768,-5.58405 17.16401,-6.50052 7.3098,-0.83155 9.69788,-2.07552 12.41062,-6.46483 2.66526,-4.31249 2.63503,-6.14902 -0.13313,-8.08792 -1.95699,-1.37073 -10.10095,-1.5567 -68.17126,-1.5567 -59.96268,0 -66.11474,0.15022 -67.77749,1.65499 -2.091791,1.89304 -2.309575,4.66724 -0.72356,9.2169 1.46164,4.19285 3.77545,5.27334 10.75338,5.02153 5.45327,-0.19679 7.46419,0.40825 14.14144,4.25481 0.825,0.47525 2.90607,1.59276 4.62459,2.48334 1.71853,0.89059 3.88337,3.02531 4.81076,4.74384 0.92739,1.71852 3.21506,5.82459 5.08372,9.12459 1.86866,3.3 3.69482,7.92854 4.05813,10.28565 0.36332,2.3571 1.71224,5.83536 2.99761,7.72946 1.28537,1.8941 2.84042,5.36556 3.45566,7.71435 0.61524,2.3488 2.10873,5.84554 3.31886,7.77054 1.21013,1.925 3.69572,7.325 5.52353,12 1.82781,4.675 4.35023,10.75 5.60537,13.5 1.25514,2.75 2.86011,6.575 3.56661,8.5 0.7065,1.925 1.8107,4.175 2.45377,5 0.64307,0.825 2.20557,4.425 3.47222,8 1.26665,3.575 4.26639,10.59849 6.66609,15.60776 2.39969,5.00926 4.36308,9.6058 4.36308,10.21451 0,0.60872 1.125,3.12183 2.5,5.58469 1.375,2.46286 2.5,5.03276 2.5,5.71089 0,1.19796 5.14732,12.60199 9.06343,20.08027 1.06511,2.03396 1.93657,4.24038 1.93657,4.90315 0,0.66278 1.35,4.06232 3,7.55456 1.65,3.49223 3,6.87442 3,7.51598 0,0.64156 1.35,3.55855 3,6.48218 1.65,2.92364 3,5.92126 3,6.66138 0,0.74012 1.12312,3.55944 2.49581,6.26515 1.3727,2.70571 2.4977,5.26188 2.5,5.68038 0.002,0.41849 0.94073,2.89349 2.0854,5.5 1.14466,2.6065 2.71385,6.20468 3.48708,7.99594 2.5379,5.87929 6.28031,7.23517 19.98171,7.23942 8.04345,0.002 12.44899,-0.39525 13.25,-1.19626 z m 243,-4 c 0.88641,-0.88641 1.2,-10.11111 1.2,-35.3 0,-25.18889 -0.31359,-34.41359 -1.2,-35.3 -1.71908,-1.71908 -68.88092,-1.71908 -70.6,0 -0.8859,0.8859 -1.2,10.02857 -1.2,34.92857 0,29.32901 0.20498,33.93355 1.57143,35.3 1.36645,1.36645 5.97099,1.57143 35.3,1.57143 24.9,0 34.04267,-0.3141 34.92857,-1.2 z m 0,-165 c 0.88499,-0.88499 1.2,-9.88889 1.2,-34.3 0,-24.41111 -0.31501,-33.41501 -1.2,-34.3 -1.71908,-1.71908 -68.88092,-1.71908 -70.6,0 -0.88499,0.88499 -1.2,9.88889 -1.2,34.3 0,24.41111 0.31501,33.41501 1.2,34.3 0.88641,0.88641 10.11111,1.2 35.3,1.2 25.18889,0 34.41359,-0.31359 35.3,-1.2 z"
         id="path3104"
         inkscape:connector-curvature="0" />
      <path
         style="fill:#b9b9b9"
         d="m -55.50858,1352.6846 -3.5,-0.7367 3,-0.2477 c 2.104955,-0.1737 2.403303,-0.3736 1,-0.67 -17.68964,-3.7363 -28.737369,-8.1137 -41.523735,-16.4526 -23.120015,-15.0784 -39.371295,-38.5049 -45.016985,-64.893 -1.13087,-5.2857 -1.88865,-7.3656 -2.00392,-5.5 -0.16999,2.7512 -0.25397,2.6683 -1.01273,-1 -1.08121,-5.2272 -1.08121,-412.7728 0,-418 0.76464,-3.69672 0.84322,-3.77254 1.03634,-1 0.14661,2.1048 0.60113,1.06041 1.5232,-3.5 5.07196,-25.08507 22.4205,-51.01855 44.202854,-66.07668 9.563955,-6.61156 24.061965,-13.42585 34.47491,-16.20375 l 8.320066,-2.21957 210,0 210,0 8.28979,2.21192 c 17.9076,4.77818 36.38514,15.33659 48.83228,27.90369 14.6972,14.83885 26.03714,36.55515 29.35478,56.21525 0.7536,4.46581 0.79849,4.51672 1.0307,1.16914 0.23879,-3.4425 0.25594,-3.42607 1.04349,1 1.06383,5.97873 1.06999,413.3576 0.006,418.5 -0.76983,3.7218 -0.84344,3.7914 -1.05837,1 -0.16076,-2.0877 -0.35946,-2.3918 -0.65343,-1 -3.73628,17.6896 -8.11363,28.7374 -16.4526,41.5237 -15.07832,23.12 -38.50491,39.3713 -64.89297,45.017 -5.28573,1.1309 -7.36555,1.8887 -5.5,2.0039 2.75124,0.17 2.66831,0.254 -1,1.0128 -4.93813,1.0214 -414.641089,0.9654 -419.5,-0.057 z m -0.971703,-806.13362 c -15.806005,-2.63951 -35.284223,-11.60977 -48.947357,-22.54163 -18.19527,-14.55802 -31.93142,-37.20769 -36.58463,-60.32475 -0.91618,-4.55155 -1.37102,-5.60072 -1.51734,-3.5 -0.19312,2.77254 -0.2717,2.69672 -1.03634,-1 -1.08121,-5.2272 -1.08121,-412.772802 0,-418.000003 0.76464,-3.696723 0.84322,-3.772542 1.03634,-1 0.14661,2.104804 0.60113,1.060409 1.5232,-3.5 3.84178,-19.000786 15.02207,-39.40303 29.55844,-53.939394 14.53636,-14.536363 34.938604,-25.71666 53.93939,-29.558437 4.560409,-0.922071 5.604804,-1.376592 3.5,-1.523202 -2.772542,-0.193122 -2.696723,-0.271696 1,-1.036336 5.227201,-1.081209 412.7728,-1.081209 418,0 3.66831,0.758764 3.75124,0.842741 1,1.012731 -1.86555,0.115267 0.21427,0.873049 5.5,2.003922 26.38806,5.645682 49.81465,21.896966 64.89297,45.016981 8.33897,12.786366 12.71632,23.834095 16.4526,41.523735 0.29397,1.391819 0.49267,1.087728 0.65343,-1 0.21493,-2.791367 0.28854,-2.721823 1.05837,1 1.06366,5.142366 1.0575,412.521273 -0.006,418.500003 -0.78755,4.42607 -0.8047,4.4425 -1.04349,1 -0.23221,-3.34758 -0.2771,-3.29667 -1.0307,1.16914 -3.31764,19.6601 -14.65758,41.3764 -29.35478,56.21525 -12.18738,12.30482 -30.29692,22.76179 -48.29474,27.88674 l -7.82766,2.22887 -208.5,0.14006 c -121.94931,0.0819 -210.771365,-0.23924 -213.971703,-0.77368 z M 111.91999,369.11317 c 0.86429,-0.86428 1.57143,-2.82532 1.57143,-4.35785 0,-1.53253 1.575,-5.80808 3.5,-9.50123 1.925,-3.69315 3.5,-7.71712 3.5,-8.94215 0,-1.22504 0.41406,-2.65484 0.92013,-3.17734 0.50607,-0.5225 1.90422,-3.65 3.10699,-6.95 6.15037,-16.87452 7.87361,-21.40105 9.83452,-25.83291 1.1761,-2.65809 2.13836,-5.48643 2.13836,-6.28518 0,-0.79875 0.63459,-2.44894 1.4102,-3.66709 0.77562,-1.21815 3.31664,-7.83982 5.64672,-14.71482 2.33008,-6.875 4.57712,-12.725 4.99342,-13 0.92766,-0.61279 4.94966,-11.87847 4.94966,-13.86404 0,-0.78835 1.30274,-4.17895 2.89497,-7.53466 4.41957,-9.31448 6.10503,-13.51727 6.10503,-15.22323 0,-0.85473 1.575,-5.13626 3.5,-9.5145 1.925,-4.37824 3.5,-8.74865 3.5,-9.71201 0,-0.96336 0.44402,-2.19558 0.98672,-2.73828 0.54269,-0.54269 2.55129,-5.48961 4.46355,-10.99315 1.91226,-5.50355 4.53674,-12.46202 5.83217,-15.46329 1.29543,-3.00126 3.18585,-8.38184 4.20093,-11.95684 1.01508,-3.575 2.36237,-6.95 2.99399,-7.5 0.63161,-0.55 2.02009,-2.575 3.08551,-4.5 3.39751,-6.13861 6.29267,-9.07315 11.90738,-12.06933 7.49144,-3.99765 13.54475,-5.96501 16.25816,-5.28399 5.97883,1.50059 11.27893,-2.70681 11.25628,-8.93564 -0.0185,-5.08721 -0.68443,-6.26618 -4.32014,-7.64848 -3.93687,-1.49679 -94.2325,-1.45774 -98.53644,0.0426 -1.74368,0.60785 -3.61083,1.92827 -4.14922,2.93426 -1.14452,2.13855 -1.27397,7.95623 -0.21358,9.59817 1.74073,2.69538 8.58335,4.36239 17.90647,4.36239 10.75841,0 14.38512,1.30894 16.27617,5.87434 2.50274,6.04214 -0.54651,24.21759 -4.67049,27.83906 -1.11898,0.98263 -3.036,4.9366 -4.26006,8.7866 -1.22406,3.85 -3.75373,11.05876 -5.62148,16.01947 -1.86776,4.96071 -3.39592,9.74222 -3.39592,10.62557 0,0.88335 -1.05141,4.02459 -2.33646,6.98053 -1.28505,2.95594 -2.90424,7.62443 -3.5982,10.37443 -1.52027,6.02447 -5.70804,18.47082 -8.09146,24.04838 -0.95147,2.22661 -2.06166,6.05161 -2.46707,8.5 -0.4054,2.44839 -1.97667,7.15162 -3.49169,10.45162 -1.51503,3.3 -3.0586,7.6875 -3.43017,9.75 -0.71537,3.97087 -2.24863,4.91526 -3.24708,2 -0.32965,-0.9625 -2.34053,-5.45348 -4.46862,-9.97996 -2.12809,-4.52646 -3.86925,-8.51213 -3.86925,-8.85702 0,-0.34488 -1.31667,-3.3914 -2.92592,-6.77003 -1.60926,-3.37863 -3.87082,-8.67494 -5.02568,-11.76957 -1.15487,-3.09463 -2.9882,-6.65098 -4.07408,-7.90301 -1.08588,-1.25202 -1.97432,-3.24148 -1.97432,-4.421 0,-1.17953 -2.19491,-6.62596 -4.87757,-12.10319 -2.68267,-5.47722 -5.63574,-12.2058 -6.5624,-14.95239 -0.92665,-2.7466 -2.2678,-5.89381 -2.98033,-6.99381 -1.34972,-2.08371 -6.67905,-14.08302 -9.32687,-21 -1.84158,-4.81083 -4.25583,-16.10181 -4.92644,-23.03996 -0.38132,-3.94515 -0.0791,-5.54381 1.39104,-7.35941 2.38204,-2.9417 8.11463,-5.1351 15.78257,-6.03872 7.92715,-0.93417 10.54469,-2.34811 13.34076,-7.20638 2.94455,-5.11627 2.30514,-8.26042 -1.98396,-9.7556 -4.10829,-1.43216 -132.14336,-1.55212 -134.80751,-0.12631 -2.502235,1.33916 -3.31189,5.33744 -2.038481,10.06652 1.452181,5.39301 4.327471,7.07043 11.738351,6.84806 4.18387,-0.12554 6.70649,0.31754 8.34605,1.46594 1.29239,0.90522 2.88429,1.64586 3.53755,1.64586 0.65327,0 2.98647,1.17765 5.1849,2.61701 6.10565,3.99748 12.42313,14.72217 15.6523,26.57167 0.85264,3.12877 2.26452,6.40294 3.1375,7.27592 0.87298,0.87299 2.17177,3.80307 2.88619,6.51131 0.71441,2.70824 2.15169,6.18407 3.19395,7.72408 1.04225,1.54001 3.36845,6.62501 5.16933,11.30001 1.80088,4.675 4.36979,10.59132 5.7087,13.14738 1.3389,2.55606 2.44844,5.25606 2.46564,6 0.0172,0.74394 1.15686,3.60262 2.53258,6.35262 1.37572,2.75 4.03406,8.91123 5.90743,13.69163 1.87337,4.7804 4.18196,9.8757 5.13019,11.3229 0.94824,1.44719 2.81085,5.86096 4.13913,9.80837 1.32829,3.9474 3.05504,7.53696 3.83723,7.97679 0.78219,0.43983 1.42217,1.75626 1.42217,2.92541 0,1.16914 1.61795,5.53428 3.59545,9.70031 6.22432,13.11287 7.40455,15.76957 7.40455,16.66766 0,0.48071 1.30672,3.58142 2.90383,6.89047 1.59711,3.30905 3.1607,7.17436 3.47466,8.58956 0.31395,1.41521 1.70722,4.24769 3.09616,6.29441 1.38894,2.04672 2.52535,4.51297 2.52535,5.48055 0,0.96759 1.06089,3.98511 2.35754,6.7056 1.29665,2.72049 3.81553,8.54634 5.59753,12.94634 5.38515,13.29669 7.2399,14.40394 24.2235,14.46086 9.32111,0.0312 11.99579,-0.27807 13.25,-1.53229 z m 243,-4 c 1.36759,-1.36759 1.57143,-6.02814 1.57143,-35.92857 0,-29.90043 -0.20384,-34.56098 -1.57143,-35.92857 -1.36759,-1.36759 -6.02814,-1.57143 -35.92857,-1.57143 -29.90043,0 -34.56098,0.20384 -35.92857,1.57143 -1.36682,1.36682 -1.57143,5.98918 -1.57143,35.5 0,32.59524 0.0786,34.00717 2,35.92857 1.9214,1.9214 3.33333,2 35.92857,2 29.51082,0 34.13318,-0.20461 35.5,-1.57143 z m 0,-165 c 1.36576,-1.36576 1.57143,-5.93723 1.57143,-34.92857 0,-28.99134 -0.20567,-33.56281 -1.57143,-34.92857 -1.36759,-1.36759 -6.02814,-1.57143 -35.92857,-1.57143 -29.90043,0 -34.56098,0.20384 -35.92857,1.57143 -1.36576,1.36576 -1.57143,5.93723 -1.57143,34.92857 0,28.99134 0.20567,33.56281 1.57143,34.92857 1.36759,1.36759 6.02814,1.57143 35.92857,1.57143 29.90043,0 34.56098,-0.20384 35.92857,-1.57143 z"
         id="path3102"
         inkscape:connector-curvature="0" />
      <path
         style="fill:#c0b5a5"
         d="m 84.5656,1173.2943 c -3.61205,-1.3055 -5.70487,-4.5365 -10.11075,-15.6097 -3.00106,-7.5425 -6.81476,-16.5034 -9.61825,-22.5997 -1.28985,-2.8048 -2.34518,-5.38 -2.34518,-5.7226 0,-0.3427 -1.16074,-3.2228 -2.57941,-6.4004 -6.03144,-13.5091 -11.58371,-26.2462 -18.42922,-42.2773 -1.76143,-4.125 -4.50508,-10.2841 -6.09699,-13.687 -1.59191,-3.4028 -2.89438,-6.5079 -2.89438,-6.9001 0,-0.3922 -1.07429,-3.008 -2.38731,-5.813 -1.31303,-2.8049 -3.61398,-8.0249 -5.11323,-11.5999 -3.63058,-8.6572 -9.18671,-21.3088 -12.12087,-27.5999 -1.30822,-2.805 -2.37859,-5.431 -2.37859,-5.8356 0,-0.4046 -1.29271,-3.5096 -2.87269,-6.9001 -5.57927,-11.9724 -7.37699,-16.2222 -9.1642,-21.6644 -2.39232,-7.2848 -6.3644,-15.2582 -8.47272,-17.008 -0.93431,-0.7754 -2.09072,-2.4408 -2.56981,-3.7009 -0.4791,-1.2601 -1.47877,-2.2911 -2.22152,-2.2911 -0.74274,0 -2.40731,-1.125 -3.69906,-2.5 -1.29175,-1.375 -2.96311,-2.5 -3.71415,-2.5 -0.75104,0 -3.12967,-0.9 -5.28585,-2 -2.43819,-1.24387 -5.92022,-2.00579 -9.21016,-2.01531 -6.20918,-0.018 -6.95939,-0.40873 -9.207652,-4.79592 -1.384658,-2.70198 -1.493429,-3.92768 -0.591164,-6.66157 0.608142,-1.84269 1.795746,-3.61514 2.639136,-3.93877 0.84338,-0.32364 30.87148,-0.58843 66.72912,-0.58843 71.85605,0 69.64072,-0.19117 69.64072,6.00965 0,6.82519 -3.67098,9.99035 -11.58689,9.99035 -2.51934,0 -6.21478,0.87849 -8.41311,2 -2.15618,1.1 -4.50535,2 -5.22038,2 -2.01261,0 -6.68523,4.7758 -7.37965,7.5425 -1.78702,7.1201 4.61711,25.6553 22.19467,64.2371 1.32295,2.9038 2.40536,5.5191 2.40536,5.8117 0,0.2926 1.50765,3.7668 3.35033,7.7204 1.84268,3.9536 4.59248,10.1133 6.11066,13.6883 1.51817,3.575 4.28553,9.7196 6.14967,13.6548 1.86414,3.9351 3.38934,7.428 3.38934,7.7621 0,0.334 1.5108,3.8644 3.35734,7.8452 1.84654,3.9808 4.16489,9.1504 5.15188,11.4879 0.98699,2.3375 2.12145,4.25 2.52102,4.25 0.39956,0 1.19975,-1.6875 1.77818,-3.75 1.39748,-4.983 7.12311,-22.2248 8.21891,-24.75 0.47735,-1.1 2.06939,-5.825 3.53787,-10.5 1.46848,-4.675 3.03492,-9.4 3.48098,-10.5 0.44605,-1.1 1.55256,-4.475 2.45891,-7.5 0.90634,-3.025 2.47127,-7.75 3.47761,-10.5 1.00635,-2.75 2.5643,-7.475 3.46211,-10.5 0.89781,-3.025 2.04915,-6.4 2.55855,-7.5 0.50939,-1.1 2.09538,-5.825 3.52442,-10.5 1.42905,-4.675 3.45576,-10.075 4.50382,-12 1.04805,-1.925 3.10546,-5.975 4.57203,-9 1.46656,-3.025 3.05571,-6.2814 3.53143,-7.2364 1.27193,-2.5535 1.05276,-13.2573 -0.33378,-16.3004 -0.68602,-1.5056 -3.23807,-3.6643 -5.96676,-5.0471 -4.05548,-2.05502 -6.20013,-2.4161 -14.35094,-2.4161 -12.6358,0 -15.48977,-1.3424 -15.46827,-7.27568 0.0322,-8.89386 -1.02411,-8.72432 54.35743,-8.72432 l 47.27863,0 2.17432,2.31445 c 2.56265,2.72782 2.89363,8.21357 0.68575,11.36576 -1.04504,1.49199 -2.90728,2.27447 -6.25,2.62612 -13.4732,1.41737 -23.79777,6.55677 -29.3984,14.63407 -2.0099,2.8988 -4.3291,6.9105 -5.15378,8.915 -0.82468,2.0045 -2.67163,6.4009 -4.10434,9.7696 -1.4327,3.3688 -2.60492,6.6531 -2.60492,7.2984 0,0.6452 -0.9,3.036 -2,5.3127 -1.1,2.2768 -2,4.5408 -2,5.0312 0,0.8919 -4.32547,12.4621 -6.06854,16.2327 -1.0223,2.2114 -4.89191,12.4761 -8.48211,22.5 -3.68277,10.2824 -4.90654,13.4078 -5.79065,14.7891 -0.45381,0.7091 -1.94952,4.5341 -3.32379,8.5 -1.37428,3.966 -3.57044,10.295 -4.88035,14.0645 -1.30992,3.7695 -2.78308,7.3695 -3.27368,8 -0.49061,0.6305 -1.15162,2.0464 -1.46892,3.1464 -0.60753,2.1061 -4.81923,13.5602 -9.00876,24.5 -1.36908,3.575 -3.46921,9.2 -4.66695,12.5 -1.19774,3.3 -2.59433,6.9 -3.10353,8 -1.06617,2.3032 -5.69946,14.7918 -6.86695,18.5092 -0.43343,1.3801 -1.96427,4.8304 -3.40187,7.6674 -1.43761,2.8369 -2.90355,7.1078 -3.25765,9.4908 -0.3541,2.3829 -1.35138,4.8951 -2.21617,5.5826 -2.06818,1.6442 -21.46681,1.54 -26.1159,-0.1403 z m 199.12582,-4.8097 c -0.88672,-0.8867 -1.2,-10.1611 -1.2,-35.5248 l 0,-34.3247 2.66438,-1.013 c 1.66377,-0.6326 15.19755,-0.9049 36.0373,-0.7252 28.36134,0.2445 33.5152,0.513 34.32031,1.7877 0.5465,0.8653 0.95386,15.5393 0.9627,34.6786 0.0133,28.8426 -0.19005,33.3839 -1.55612,34.75 -1.36736,1.3673 -6.01645,1.5714 -35.8,1.5714 -25.28889,0 -34.54198,-0.3134 -35.42857,-1.2 z m -0.59301,-165.3818 c -0.33385,-0.87 -0.60699,-16.6041 -0.60699,-34.9648 0,-31.98137 0.0812,-33.4265 1.93426,-34.41822 1.2229,-0.65447 14.25244,-1.03518 35.42857,-1.03518 29.11604,0 33.69973,0.20541 35.06574,1.57143 1.36552,1.36551 1.57143,5.92554 1.57143,34.79997 0,24.5111 -0.31482,33.5434 -1.2,34.4286 -0.88787,0.8879 -10.354,1.2 -36.39301,1.2 -31.16893,0 -35.26242,-0.1809 -35.8,-1.5818 z"
         id="path3100"
         inkscape:connector-curvature="0" />
      <path
         style="fill:#cbb087"
         d="m 84.5656,1173.2943 c -3.61205,-1.3055 -5.70487,-4.5365 -10.11075,-15.6097 -3.00106,-7.5425 -6.81476,-16.5034 -9.61825,-22.5997 -1.28985,-2.8048 -2.34518,-5.38 -2.34518,-5.7226 0,-0.3427 -1.16074,-3.2228 -2.57941,-6.4004 -6.03144,-13.5091 -11.58371,-26.2462 -18.42922,-42.2773 -1.76143,-4.125 -4.50508,-10.2841 -6.09699,-13.687 -1.59191,-3.4028 -2.89438,-6.5079 -2.89438,-6.9001 0,-0.3922 -1.07429,-3.008 -2.38731,-5.813 -1.31303,-2.8049 -3.61398,-8.0249 -5.11323,-11.5999 -3.63058,-8.6572 -9.18671,-21.3088 -12.12087,-27.5999 -1.30822,-2.805 -2.37859,-5.431 -2.37859,-5.8356 0,-0.4046 -1.29271,-3.5096 -2.87269,-6.9001 -5.57927,-11.9724 -7.37699,-16.2222 -9.1642,-21.6644 -2.39232,-7.2848 -6.3644,-15.2582 -8.47272,-17.008 -0.93431,-0.7754 -2.09072,-2.4408 -2.56981,-3.7009 -0.4791,-1.2601 -1.47877,-2.2911 -2.22152,-2.2911 -0.74274,0 -2.40731,-1.125 -3.69906,-2.5 -1.29175,-1.375 -2.96311,-2.5 -3.71415,-2.5 -0.75104,0 -3.12967,-0.9 -5.28585,-2 -2.43819,-1.24387 -5.92022,-2.00579 -9.21016,-2.01531 -6.20918,-0.018 -6.95939,-0.40873 -9.207652,-4.79592 -1.384658,-2.70198 -1.493429,-3.92768 -0.591164,-6.66157 0.608142,-1.84269 1.795746,-3.61514 2.639136,-3.93877 0.84338,-0.32364 30.87148,-0.58843 66.72912,-0.58843 71.85605,0 69.64072,-0.19117 69.64072,6.00965 0,6.82519 -3.67098,9.99035 -11.58689,9.99035 -2.51934,0 -6.21478,0.87849 -8.41311,2 -2.15618,1.1 -4.50535,2 -5.22038,2 -2.01261,0 -6.68523,4.7758 -7.37965,7.5425 -1.78702,7.1201 4.61711,25.6553 22.19467,64.2371 1.32295,2.9038 2.40536,5.5191 2.40536,5.8117 0,0.2926 1.50765,3.7668 3.35033,7.7204 1.84268,3.9536 4.59248,10.1133 6.11066,13.6883 1.51817,3.575 4.28553,9.7196 6.14967,13.6548 1.86414,3.9351 3.38934,7.428 3.38934,7.7621 0,0.334 1.5108,3.8644 3.35734,7.8452 1.84654,3.9808 4.16489,9.1504 5.15188,11.4879 0.98699,2.3375 2.12145,4.25 2.52102,4.25 0.39956,0 1.19975,-1.6875 1.77818,-3.75 1.39748,-4.983 7.12311,-22.2248 8.21891,-24.75 0.47735,-1.1 2.06939,-5.825 3.53787,-10.5 1.46848,-4.675 3.03492,-9.4 3.48098,-10.5 0.44605,-1.1 1.55256,-4.475 2.45891,-7.5 0.90634,-3.025 2.47127,-7.75 3.47761,-10.5 1.00635,-2.75 2.5643,-7.475 3.46211,-10.5 0.89781,-3.025 2.04915,-6.4 2.55855,-7.5 0.50939,-1.1 2.09538,-5.825 3.52442,-10.5 1.42905,-4.675 3.45576,-10.075 4.50382,-12 1.04805,-1.925 3.10546,-5.975 4.57203,-9 1.46656,-3.025 3.05571,-6.2814 3.53143,-7.2364 1.27193,-2.5535 1.05276,-13.2573 -0.33378,-16.3004 -0.68602,-1.5056 -3.23807,-3.6643 -5.96676,-5.0471 -4.05548,-2.05502 -6.20013,-2.4161 -14.35094,-2.4161 -12.6358,0 -15.48977,-1.3424 -15.46827,-7.27568 0.0322,-8.89386 -1.02411,-8.72432 54.35743,-8.72432 l 47.27863,0 2.17432,2.31445 c 2.56265,2.72782 2.89363,8.21357 0.68575,11.36576 -1.04504,1.49199 -2.90728,2.27447 -6.25,2.62612 -13.4732,1.41737 -23.79777,6.55677 -29.3984,14.63407 -2.0099,2.8988 -4.3291,6.9105 -5.15378,8.915 -0.82468,2.0045 -2.67163,6.4009 -4.10434,9.7696 -1.4327,3.3688 -2.60492,6.6531 -2.60492,7.2984 0,0.6452 -0.9,3.036 -2,5.3127 -1.1,2.2768 -2,4.5408 -2,5.0312 0,0.8919 -4.32547,12.4621 -6.06854,16.2327 -1.0223,2.2114 -4.89191,12.4761 -8.48211,22.5 -3.68277,10.2824 -4.90654,13.4078 -5.79065,14.7891 -0.45381,0.7091 -1.94952,4.5341 -3.32379,8.5 -1.37428,3.966 -3.57044,10.295 -4.88035,14.0645 -1.30992,3.7695 -2.78308,7.3695 -3.27368,8 -0.49061,0.6305 -1.15162,2.0464 -1.46892,3.1464 -0.60753,2.1061 -4.81923,13.5602 -9.00876,24.5 -1.36908,3.575 -3.46921,9.2 -4.66695,12.5 -1.19774,3.3 -2.59433,6.9 -3.10353,8 -1.06617,2.3032 -5.69946,14.7918 -6.86695,18.5092 -0.43343,1.3801 -1.96427,4.8304 -3.40187,7.6674 -1.43761,2.8369 -2.90355,7.1078 -3.25765,9.4908 -0.3541,2.3829 -1.35138,4.8951 -2.21617,5.5826 -2.06818,1.6442 -21.46681,1.54 -26.1159,-0.1403 z m 200.17582,-5.272 c -1.76959,-0.714 -1.8178,-67.3699 -0.05,-69.1377 0.88571,-0.8857 10,-1.2 34.8,-1.2 24.8,0 33.91429,0.3143 34.8,1.2 0.88499,0.885 1.2,9.8889 1.2,34.3 0,24.4111 -0.31501,33.415 -1.2,34.3 -0.88889,0.8889 -9.89825,1.1795 -34.75,1.1211 -18.4525,-0.043 -34.1125,-0.306 -34.8,-0.5834 z m -0.79025,-165.582 c -0.26802,-0.6984 -0.36861,-16.3417 -0.22353,-34.7628 l 0.26378,-33.4929 35.5,0 35.5,0 0,34.5 0,34.5 -35.27646,0.2628 c -27.78697,0.207 -35.37993,-0.01 -35.76379,-1.0071 z"
         id="path3098"
         inkscape:connector-curvature="0" />
      <path
         style="fill:#a8a8a8"
         d="m 84.5656,1173.2943 c -3.61205,-1.3055 -5.70487,-4.5365 -10.11075,-15.6097 -3.00106,-7.5425 -6.81476,-16.5034 -9.61825,-22.5997 -1.28985,-2.8048 -2.34518,-5.38 -2.34518,-5.7226 0,-0.3427 -1.16074,-3.2228 -2.57941,-6.4004 -6.03144,-13.5091 -11.58371,-26.2462 -18.42922,-42.2773 -1.76143,-4.125 -4.50508,-10.2841 -6.09699,-13.687 -1.59191,-3.4028 -2.89438,-6.5079 -2.89438,-6.9001 0,-0.3922 -1.07429,-3.008 -2.38731,-5.813 -1.31303,-2.8049 -3.61398,-8.0249 -5.11323,-11.5999 -3.63058,-8.6572 -9.18671,-21.3088 -12.12087,-27.5999 -1.30822,-2.805 -2.37859,-5.431 -2.37859,-5.8356 0,-0.4046 -1.29271,-3.5096 -2.87269,-6.9001 -5.57927,-11.9724 -7.37699,-16.2222 -9.1642,-21.6644 -2.39232,-7.2848 -6.3644,-15.2582 -8.47272,-17.008 -0.93431,-0.7754 -2.09072,-2.4408 -2.56981,-3.7009 -0.4791,-1.2601 -1.47877,-2.2911 -2.22152,-2.2911 -0.74274,0 -2.40731,-1.125 -3.69906,-2.5 -1.29175,-1.375 -2.96311,-2.5 -3.71415,-2.5 -0.75104,0 -3.12967,-0.9 -5.28585,-2 -2.43819,-1.24387 -5.92022,-2.00579 -9.21016,-2.01531 -6.20918,-0.018 -6.95939,-0.40873 -9.207652,-4.79592 -1.384658,-2.70198 -1.493429,-3.92768 -0.591164,-6.66157 0.608142,-1.84269 1.795746,-3.61514 2.639136,-3.93877 0.84338,-0.32364 30.87148,-0.58843 66.72912,-0.58843 71.85605,0 69.64072,-0.19117 69.64072,6.00965 0,6.82519 -3.67098,9.99035 -11.58689,9.99035 -2.51934,0 -6.21478,0.87849 -8.41311,2 -2.15618,1.1 -4.50535,2 -5.22038,2 -2.01261,0 -6.68523,4.7758 -7.37965,7.5425 -1.78702,7.1201 4.61711,25.6553 22.19467,64.2371 1.32295,2.9038 2.40536,5.5191 2.40536,5.8117 0,0.2926 1.50765,3.7668 3.35033,7.7204 1.84268,3.9536 4.59248,10.1133 6.11066,13.6883 1.51817,3.575 4.28553,9.7196 6.14967,13.6548 1.86414,3.9351 3.38934,7.428 3.38934,7.7621 0,0.334 1.5108,3.8644 3.35734,7.8452 1.84654,3.9808 4.16489,9.1504 5.15188,11.4879 0.98699,2.3375 2.12145,4.25 2.52102,4.25 0.39956,0 1.19975,-1.6875 1.77818,-3.75 1.39748,-4.983 7.12311,-22.2248 8.21891,-24.75 0.47735,-1.1 2.06939,-5.825 3.53787,-10.5 1.46848,-4.675 3.03492,-9.4 3.48098,-10.5 0.44605,-1.1 1.55256,-4.475 2.45891,-7.5 0.90634,-3.025 2.47127,-7.75 3.47761,-10.5 1.00635,-2.75 2.5643,-7.475 3.46211,-10.5 0.89781,-3.025 2.04915,-6.4 2.55855,-7.5 0.50939,-1.1 2.09538,-5.825 3.52442,-10.5 1.42905,-4.675 3.45576,-10.075 4.50382,-12 1.04805,-1.925 3.10546,-5.975 4.57203,-9 1.46656,-3.025 3.05571,-6.2814 3.53143,-7.2364 1.27193,-2.5535 1.05276,-13.2573 -0.33378,-16.3004 -0.68602,-1.5056 -3.23807,-3.6643 -5.96676,-5.0471 -4.05548,-2.05502 -6.20013,-2.4161 -14.35094,-2.4161 -12.6358,0 -15.48977,-1.3424 -15.46827,-7.27568 0.0322,-8.89386 -1.02411,-8.72432 54.35743,-8.72432 l 47.27863,0 2.17432,2.31445 c 2.56265,2.72782 2.89363,8.21357 0.68575,11.36576 -1.04504,1.49199 -2.90728,2.27447 -6.25,2.62612 -13.4732,1.41737 -23.79777,6.55677 -29.3984,14.63407 -2.0099,2.8988 -4.3291,6.9105 -5.15378,8.915 -0.82468,2.0045 -2.67163,6.4009 -4.10434,9.7696 -1.4327,3.3688 -2.60492,6.6531 -2.60492,7.2984 0,0.6452 -0.9,3.036 -2,5.3127 -1.1,2.2768 -2,4.5408 -2,5.0312 0,0.8919 -4.32547,12.4621 -6.06854,16.2327 -1.0223,2.2114 -4.89191,12.4761 -8.48211,22.5 -3.68277,10.2824 -4.90654,13.4078 -5.79065,14.7891 -0.45381,0.7091 -1.94952,4.5341 -3.32379,8.5 -1.37428,3.966 -3.57044,10.295 -4.88035,14.0645 -1.30992,3.7695 -2.78308,7.3695 -3.27368,8 -0.49061,0.6305 -1.15162,2.0464 -1.46892,3.1464 -0.60753,2.1061 -4.81923,13.5602 -9.00876,24.5 -1.36908,3.575 -3.46921,9.2 -4.66695,12.5 -1.19774,3.3 -2.59433,6.9 -3.10353,8 -1.06617,2.3032 -5.69946,14.7918 -6.86695,18.5092 -0.43343,1.3801 -1.96427,4.8304 -3.40187,7.6674 -1.43761,2.8369 -2.90355,7.1078 -3.25765,9.4908 -0.3541,2.3829 -1.35138,4.8951 -2.21617,5.5826 -2.06818,1.6442 -21.46681,1.54 -26.1159,-0.1403 z m 199.53281,-7.1915 c -0.33385,-0.87 -0.60699,-15.634 -0.60699,-32.8089 0,-23.4051 0.31311,-31.6544 1.25,-32.933 1.14251,-1.5593 4.17371,-1.6832 35.25,-1.4411 l 34,0.2648 0.26313,34.25 0.26313,34.25 -34.90614,0 c -30.90735,0 -34.97568,-0.1812 -35.51313,-1.5818 z m 0.43519,-164.3394 c -1.11935,-2.0915 -1.52184,-62.66526 -0.43519,-65.49701 0.53745,-1.40058 4.60578,-1.58179 35.51313,-1.58179 l 34.90614,0 -0.26313,34.25 -0.26313,34.25 -34.20782,0.2631 c -33.01788,0.2539 -34.24407,0.1953 -35.25,-1.6843 z"
         id="path3096"
         inkscape:connector-curvature="0" />
      <path
         style="fill:#d1ad74"
         d="m 83.96718,1172.3042 c -3.2224,-1.4206 -3.78965,-2.3675 -7.89767,-13.1834 -1.44892,-3.8149 -3.74674,-9.1933 -5.10625,-11.952 -1.35951,-2.7588 -2.47184,-5.3741 -2.47184,-5.812 0,-0.4378 -1.15357,-3.3557 -2.5635,-6.4841 -1.40992,-3.1285 -3.62259,-8.1631 -4.91703,-11.1881 -1.29445,-3.025 -4.14184,-9.55 -6.32753,-14.5 -4.46047,-10.1018 -9.54054,-21.7581 -12.42083,-28.5 -1.05737,-2.475 -3.41249,-7.875 -5.23358,-12 -1.82109,-4.125 -4.45755,-10.2 -5.85879,-13.5 -7.64663,-18.0081 -16.07043,-37.4458 -18.63515,-43 -1.01587,-2.2 -3.06728,-6.925 -4.55868,-10.5 -1.4914,-3.575 -3.59192,-8.489 -4.66782,-10.9199 -1.0759,-2.431 -2.63945,-6.481 -3.47455,-9 -2.13124,-6.4288 -6.74061,-15.5466 -9.78555,-19.3567 -7.269,-9.0956 -13.51667,-12.5342 -24.70471,-13.59687 -7.4325,-0.70597 -10.35158,-2.57037 -11.383981,-7.27086 -0.427078,-1.94448 -0.100515,-3.76803 0.966371,-5.39631 l 1.61144,-2.45936 66.45389,0 66.45389,0 1.64193,2.5059 c 1.40563,2.14526 1.4564,2.95382 0.35275,5.61827 -1.80161,4.34946 -6.37312,6.86755 -12.47606,6.87209 -2.76513,0.002 -5.91513,0.6116 -7,1.35454 -1.08488,0.7429 -3.13258,1.6321 -4.55045,1.9759 -1.41786,0.3438 -3.78036,1.7394 -5.25,3.1014 -2.25666,2.0914 -2.66835,3.3 -2.6482,7.7742 0.0131,2.9137 0.49304,7.0977 1.06649,9.2977 0.57344,2.2 1.39726,5.575 1.83069,7.5 0.75395,3.3485 5.75366,15.708 11.52894,28.5 2.70443,5.9902 6.00023,13.4523 13.02937,29.5 2.04772,4.675 4.80257,10.7571 6.12189,13.5158 1.31932,2.7588 2.39876,5.3224 2.39876,5.6971 0,0.3746 1.61512,4.1925 3.58917,8.4841 3.50251,7.6146 7.88147,17.4613 12.47555,28.053 1.25244,2.8875 2.57117,5.25 2.93052,5.25 0.35935,0 8.90619,-24.7831 18.99297,-55.0735 10.08678,-30.2904 19.10399,-56.0529 20.03825,-57.25 4.5936,-5.8858 6.34108,-11.1196 6.77157,-20.2812 0.49816,-10.6017 -0.23831,-12.5589 -5.79163,-15.392 -3.10603,-1.58461 -5.89505,-2.0033 -13.34444,-2.0033 -6.14619,0 -10.67596,-0.52573 -13.03984,-1.51342 -3.38996,-1.41642 -3.62212,-1.79735 -3.62212,-5.9433 0,-7.85828 -2.19517,-7.54328 52.56752,-7.54328 45.35031,0 48.21784,0.10535 49.77749,1.82874 0.91025,1.00581 1.65499,3.48081 1.65499,5.5 0,4.8391 -2.82143,7.67126 -7.64219,7.67126 -5.20893,0 -16.07259,3.5079 -21.5188,6.9484 -7.08787,4.4776 -12.88151,14.2283 -18.4502,31.0516 -0.81925,2.475 -1.91532,5.4 -2.43573,6.5 -0.5204,1.1 -2.03108,4.925 -3.35708,8.5 -1.32599,3.575 -3.37157,8.975 -4.54574,12 -2.28023,5.8746 -4.58496,11.9843 -9.05333,24 -1.53399,4.125 -3.76116,9.975 -4.94926,13 -5.2819,13.4482 -7.32124,18.8609 -9.0424,24 -1.01312,3.025 -3.05336,8.2 -4.53385,11.5 -1.4805,3.3 -3.49379,8.475 -4.47398,11.5 -0.98019,3.025 -2.25655,6.625 -2.83636,8 -1.50182,3.5616 -10.0933,26.4649 -12.37894,33 -2.10173,6.0093 -2.37645,6.6872 -6.28112,15.5 -3.21613,7.2588 -5.23889,13.1389 -5.67594,16.5 -0.32444,2.4951 -0.34868,2.5004 -12.32508,2.7264 -8.2648,0.1559 -12.94134,-0.1886 -15.02424,-1.1068 z m 200.13123,-6.2014 c -0.33385,-0.87 -0.60699,-15.634 -0.60699,-32.8089 0,-23.4051 0.31311,-31.6544 1.25,-32.933 1.14251,-1.5593 4.17371,-1.6832 35.25,-1.4411 l 34,0.2648 0.26313,34.25 0.26313,34.25 -34.90614,0 c -30.90735,0 -34.97568,-0.1812 -35.51313,-1.5818 z m 0.43519,-164.3394 c -1.11935,-2.0915 -1.52184,-62.66526 -0.43519,-65.49701 0.53745,-1.40058 4.60578,-1.58179 35.51313,-1.58179 l 34.90614,0 -0.26313,34.25 -0.26313,34.25 -34.20782,0.2631 c -33.01788,0.2539 -34.24407,0.1953 -35.25,-1.6843 z"
         id="path3094"
         inkscape:connector-curvature="0" />
      <path
         style="fill:#dba75a"
         d="m 83.96718,1172.3042 c -3.2224,-1.4206 -3.78965,-2.3675 -7.89767,-13.1834 -1.44892,-3.8149 -3.74674,-9.1933 -5.10625,-11.952 -1.35951,-2.7588 -2.47184,-5.3741 -2.47184,-5.812 0,-0.4378 -1.15357,-3.3557 -2.5635,-6.4841 -1.40992,-3.1285 -3.62259,-8.1631 -4.91703,-11.1881 -1.29445,-3.025 -4.14184,-9.55 -6.32753,-14.5 -4.46047,-10.1018 -9.54054,-21.7581 -12.42083,-28.5 -1.05737,-2.475 -3.41249,-7.875 -5.23358,-12 -1.82109,-4.125 -4.45755,-10.2 -5.85879,-13.5 -7.64663,-18.0081 -16.07043,-37.4458 -18.63515,-43 -1.01587,-2.2 -3.06728,-6.925 -4.55868,-10.5 -1.4914,-3.575 -3.59192,-8.489 -4.66782,-10.9199 -1.0759,-2.431 -2.63945,-6.481 -3.47455,-9 -2.13124,-6.4288 -6.74061,-15.5466 -9.78555,-19.3567 -7.269,-9.0956 -13.51667,-12.5342 -24.70471,-13.59687 -7.4325,-0.70597 -10.35158,-2.57037 -11.383981,-7.27086 -0.427078,-1.94448 -0.100515,-3.76803 0.966371,-5.39631 l 1.61144,-2.45936 66.45389,0 66.45389,0 1.64193,2.5059 c 1.40563,2.14526 1.4564,2.95382 0.35275,5.61827 -1.80161,4.34946 -6.37312,6.86755 -12.47606,6.87209 -2.76513,0.002 -5.91513,0.6116 -7,1.35454 -1.08488,0.7429 -3.13258,1.6321 -4.55045,1.9759 -1.41786,0.3438 -3.78036,1.7394 -5.25,3.1014 -2.25666,2.0914 -2.66835,3.3 -2.6482,7.7742 0.0131,2.9137 0.49304,7.0977 1.06649,9.2977 0.57344,2.2 1.39726,5.575 1.83069,7.5 0.75395,3.3485 5.75366,15.708 11.52894,28.5 2.70443,5.9902 6.00023,13.4523 13.02937,29.5 2.04772,4.675 4.80257,10.7571 6.12189,13.5158 1.31932,2.7588 2.39876,5.3224 2.39876,5.6971 0,0.3746 1.61512,4.1925 3.58917,8.4841 3.50251,7.6146 7.88147,17.4613 12.47555,28.053 1.25244,2.8875 2.57117,5.25 2.93052,5.25 0.35935,0 8.90619,-24.7831 18.99297,-55.0735 10.08678,-30.2904 19.10399,-56.0529 20.03825,-57.25 4.5936,-5.8858 6.34108,-11.1196 6.77157,-20.2812 0.49816,-10.6017 -0.23831,-12.5589 -5.79163,-15.392 -3.10603,-1.58461 -5.89505,-2.0033 -13.34444,-2.0033 -6.14619,0 -10.67596,-0.52573 -13.03984,-1.51342 -3.38996,-1.41642 -3.62212,-1.79735 -3.62212,-5.9433 0,-7.85828 -2.19517,-7.54328 52.56752,-7.54328 45.35031,0 48.21784,0.10535 49.77749,1.82874 0.91025,1.00581 1.65499,3.48081 1.65499,5.5 0,4.8391 -2.82143,7.67126 -7.64219,7.67126 -5.20893,0 -16.07259,3.5079 -21.5188,6.9484 -7.08787,4.4776 -12.88151,14.2283 -18.4502,31.0516 -0.81925,2.475 -1.91532,5.4 -2.43573,6.5 -0.5204,1.1 -2.03108,4.925 -3.35708,8.5 -1.32599,3.575 -3.37157,8.975 -4.54574,12 -2.28023,5.8746 -4.58496,11.9843 -9.05333,24 -1.53399,4.125 -3.76116,9.975 -4.94926,13 -5.2819,13.4482 -7.32124,18.8609 -9.0424,24 -1.01312,3.025 -3.05336,8.2 -4.53385,11.5 -1.4805,3.3 -3.49379,8.475 -4.47398,11.5 -0.98019,3.025 -2.25655,6.625 -2.83636,8 -1.50182,3.5616 -10.0933,26.4649 -12.37894,33 -2.10173,6.0093 -2.37645,6.6872 -6.28112,15.5 -3.21613,7.2588 -5.23889,13.1389 -5.67594,16.5 -0.32444,2.4951 -0.34868,2.5004 -12.32508,2.7264 -8.2648,0.1559 -12.94134,-0.1886 -15.02424,-1.1068 z m 201.20382,-5.2734 c -0.37377,-0.3737 -0.67958,-15.6314 -0.67958,-33.9059 0,-29.3756 0.18332,-33.2967 1.58179,-33.8333 2.37889,-0.9129 65.72352,-0.7 67.18192,0.2258 0.98584,0.6258 1.20572,8.1534 1,34.2347 l -0.26371,33.4325 -34.07042,0.2629 c -18.73873,0.1446 -34.37623,-0.043 -34.75,-0.4167 z m -0.22009,-165.5912 c -0.26831,-0.6992 -0.36896,-15.8926 -0.22366,-33.7631 l 0.26417,-32.4919 34.5,0 34.5,0 0,33.5 0,33.5 -34.27634,0.2632 c -26.99772,0.2072 -34.37992,-0.01 -34.76417,-1.0082 z"
         id="path3092"
         inkscape:connector-curvature="0" />
      <path
         style="fill:#e1a54a"
         d="m 83.96718,1172.3042 c -3.2224,-1.4206 -3.78965,-2.3675 -7.89767,-13.1834 -1.44892,-3.8149 -3.74674,-9.1933 -5.10625,-11.952 -1.35951,-2.7588 -2.47184,-5.3741 -2.47184,-5.812 0,-0.4378 -1.15357,-3.3557 -2.5635,-6.4841 -1.40992,-3.1285 -3.62259,-8.1631 -4.91703,-11.1881 -1.29445,-3.025 -4.14184,-9.55 -6.32753,-14.5 -4.46047,-10.1018 -9.54054,-21.7581 -12.42083,-28.5 -1.05737,-2.475 -3.41249,-7.875 -5.23358,-12 -1.82109,-4.125 -4.45755,-10.2 -5.85879,-13.5 -7.64663,-18.0081 -16.07043,-37.4458 -18.63515,-43 -1.01587,-2.2 -3.06728,-6.925 -4.55868,-10.5 -1.4914,-3.575 -3.59192,-8.489 -4.66782,-10.9199 -1.0759,-2.431 -2.63945,-6.481 -3.47455,-9 -2.13124,-6.4288 -6.74061,-15.5466 -9.78555,-19.3567 -7.269,-9.0956 -13.51667,-12.5342 -24.70471,-13.59687 -7.4325,-0.70597 -10.35158,-2.57037 -11.383981,-7.27086 -0.427078,-1.94448 -0.100515,-3.76803 0.966371,-5.39631 l 1.61144,-2.45936 66.45389,0 66.45389,0 1.64193,2.5059 c 1.40563,2.14526 1.4564,2.95382 0.35275,5.61827 -1.80161,4.34946 -6.37312,6.86755 -12.47606,6.87209 -2.76513,0.002 -5.91513,0.6116 -7,1.35454 -1.08488,0.7429 -3.13258,1.6321 -4.55045,1.9759 -1.41786,0.3438 -3.78036,1.7394 -5.25,3.1014 -2.25666,2.0914 -2.66835,3.3 -2.6482,7.7742 0.0131,2.9137 0.49304,7.0977 1.06649,9.2977 0.57344,2.2 1.39726,5.575 1.83069,7.5 0.75395,3.3485 5.75366,15.708 11.52894,28.5 2.70443,5.9902 6.00023,13.4523 13.02937,29.5 2.04772,4.675 4.80257,10.7571 6.12189,13.5158 1.31932,2.7588 2.39876,5.3224 2.39876,5.6971 0,0.3746 1.61512,4.1925 3.58917,8.4841 3.50251,7.6146 7.88147,17.4613 12.47555,28.053 1.25244,2.8875 2.57117,5.25 2.93052,5.25 0.35935,0 8.90619,-24.7831 18.99297,-55.0735 10.08678,-30.2904 19.10399,-56.0529 20.03825,-57.25 4.5936,-5.8858 6.34108,-11.1196 6.77157,-20.2812 0.49816,-10.6017 -0.23831,-12.5589 -5.79163,-15.392 -3.10603,-1.58461 -5.89505,-2.0033 -13.34444,-2.0033 -6.14619,0 -10.67596,-0.52573 -13.03984,-1.51342 -3.38996,-1.41642 -3.62212,-1.79735 -3.62212,-5.9433 0,-7.85828 -2.19517,-7.54328 52.56752,-7.54328 45.35031,0 48.21784,0.10535 49.77749,1.82874 0.91025,1.00581 1.65499,3.48081 1.65499,5.5 0,4.8391 -2.82143,7.67126 -7.64219,7.67126 -5.20893,0 -16.07259,3.5079 -21.5188,6.9484 -7.08787,4.4776 -12.88151,14.2283 -18.4502,31.0516 -0.81925,2.475 -1.91532,5.4 -2.43573,6.5 -0.5204,1.1 -2.03108,4.925 -3.35708,8.5 -1.32599,3.575 -3.37157,8.975 -4.54574,12 -2.28023,5.8746 -4.58496,11.9843 -9.05333,24 -1.53399,4.125 -3.76116,9.975 -4.94926,13 -5.2819,13.4482 -7.32124,18.8609 -9.0424,24 -1.01312,3.025 -3.05336,8.2 -4.53385,11.5 -1.4805,3.3 -3.49379,8.475 -4.47398,11.5 -0.98019,3.025 -2.25655,6.625 -2.83636,8 -1.50182,3.5616 -10.0933,26.4649 -12.37894,33 -2.10173,6.0093 -2.37645,6.6872 -6.28112,15.5 -3.21613,7.2588 -5.23889,13.1389 -5.67594,16.5 -0.32444,2.4951 -0.34868,2.5004 -12.32508,2.7264 -8.2648,0.1559 -12.94134,-0.1886 -15.02424,-1.1068 z m 202.20011,-5.8696 c -1.5576,-1.141 -1.68326,-4.0837 -1.44113,-33.75 l 0.26526,-32.5 34.5,0 34.5,0 0.26403,32.3806 c 0.18804,23.0619 -0.063,32.7748 -0.87245,33.75 -1.58727,1.9126 -64.61502,2.0245 -67.21571,0.1194 z M 285.171,1002.0308 c -0.37377,-0.3737 -0.67958,-15.1395 -0.67958,-32.8129 0,-23.65923 0.31646,-32.44976 1.2,-33.3333 1.86453,-1.86453 66.13706,-1.70372 67.69158,0.16936 0.80941,0.97528 1.06049,10.68815 0.87245,33.75004 l -0.26403,32.3806 -34.07042,0.2629 c -18.73873,0.1446 -34.37623,-0.043 -34.75,-0.4167 z"
         id="path3090"
         inkscape:connector-curvature="0" />
      <path
         style="fill:#979797"
         d="m 83.96718,1172.3042 c -3.2224,-1.4206 -3.78965,-2.3675 -7.89767,-13.1834 -1.44892,-3.8149 -3.74674,-9.1933 -5.10625,-11.952 -1.35951,-2.7588 -2.47184,-5.3741 -2.47184,-5.812 0,-0.4378 -1.15357,-3.3557 -2.5635,-6.4841 -1.40992,-3.1285 -3.62259,-8.1631 -4.91703,-11.1881 -1.29445,-3.025 -4.14184,-9.55 -6.32753,-14.5 -4.46047,-10.1018 -9.54054,-21.7581 -12.42083,-28.5 -1.05737,-2.475 -3.41249,-7.875 -5.23358,-12 -1.82109,-4.125 -4.45755,-10.2 -5.85879,-13.5 -7.64663,-18.0081 -16.07043,-37.4458 -18.63515,-43 -1.01587,-2.2 -3.06728,-6.925 -4.55868,-10.5 -1.4914,-3.575 -3.59192,-8.489 -4.66782,-10.9199 -1.0759,-2.431 -2.63945,-6.481 -3.47455,-9 -2.13124,-6.4288 -6.74061,-15.5466 -9.78555,-19.3567 -7.269,-9.0956 -13.51667,-12.5342 -24.70471,-13.59687 -7.4325,-0.70597 -10.35158,-2.57037 -11.383981,-7.27086 -0.427078,-1.94448 -0.100515,-3.76803 0.966371,-5.39631 l 1.61144,-2.45936 66.45389,0 66.45389,0 1.64193,2.5059 c 1.40563,2.14526 1.4564,2.95382 0.35275,5.61827 -1.80161,4.34946 -6.37312,6.86755 -12.47606,6.87209 -2.76513,0.002 -5.91513,0.6116 -7,1.35454 -1.08488,0.7429 -3.13258,1.6321 -4.55045,1.9759 -1.41786,0.3438 -3.78036,1.7394 -5.25,3.1014 -2.25666,2.0914 -2.66835,3.3 -2.6482,7.7742 0.0131,2.9137 0.49304,7.0977 1.06649,9.2977 0.57344,2.2 1.39726,5.575 1.83069,7.5 0.75395,3.3485 5.75366,15.708 11.52894,28.5 2.70443,5.9902 6.00023,13.4523 13.02937,29.5 2.04772,4.675 4.80257,10.7571 6.12189,13.5158 1.31932,2.7588 2.39876,5.3224 2.39876,5.6971 0,0.3746 1.61512,4.1925 3.58917,8.4841 3.50251,7.6146 7.88147,17.4613 12.47555,28.053 1.25244,2.8875 2.57117,5.25 2.93052,5.25 0.35935,0 8.90619,-24.7831 18.99297,-55.0735 10.08678,-30.2904 19.10399,-56.0529 20.03825,-57.25 4.5936,-5.8858 6.34108,-11.1196 6.77157,-20.2812 0.49816,-10.6017 -0.23831,-12.5589 -5.79163,-15.392 -3.10603,-1.58461 -5.89505,-2.0033 -13.34444,-2.0033 -6.14619,0 -10.67596,-0.52573 -13.03984,-1.51342 -3.38996,-1.41642 -3.62212,-1.79735 -3.62212,-5.9433 0,-7.85828 -2.19517,-7.54328 52.56752,-7.54328 45.35031,0 48.21784,0.10535 49.77749,1.82874 0.91025,1.00581 1.65499,3.48081 1.65499,5.5 0,4.8391 -2.82143,7.67126 -7.64219,7.67126 -5.20893,0 -16.07259,3.5079 -21.5188,6.9484 -7.08787,4.4776 -12.88151,14.2283 -18.4502,31.0516 -0.81925,2.475 -1.91532,5.4 -2.43573,6.5 -0.5204,1.1 -2.03108,4.925 -3.35708,8.5 -1.32599,3.575 -3.37157,8.975 -4.54574,12 -2.28023,5.8746 -4.58496,11.9843 -9.05333,24 -1.53399,4.125 -3.76116,9.975 -4.94926,13 -5.2819,13.4482 -7.32124,18.8609 -9.0424,24 -1.01312,3.025 -3.05336,8.2 -4.53385,11.5 -1.4805,3.3 -3.49379,8.475 -4.47398,11.5 -0.98019,3.025 -2.25655,6.625 -2.83636,8 -1.50182,3.5616 -10.0933,26.4649 -12.37894,33 -2.10173,6.0093 -2.37645,6.6872 -6.28112,15.5 -3.21613,7.2588 -5.23889,13.1389 -5.67594,16.5 -0.32444,2.4951 -0.34868,2.5004 -12.32508,2.7264 -8.2648,0.1559 -12.94134,-0.1886 -15.02424,-1.1068 z m 201.98367,-6.8647 c -0.2685,-0.6997 -0.36921,-15.6683 -0.22381,-33.2636 l 0.26438,-31.9913 33.5,0 33.5,0 0,33 0,33 -33.2762,0.2635 c -26.20099,0.2075 -33.37999,-0.01 -33.76437,-1.0086 z m 0.53577,-163.5882 c -0.63336,-0.2122 -0.9952,-12.3014 -0.9952,-33.25 l 0,-32.9167 34,0 34,0 0,32.9736 0,32.9736 -33.0048,0.2764 c -18.15264,0.152 -33.45264,0.1264 -34,-0.057 z"
         id="path3088"
         inkscape:connector-curvature="0" />
      <path
         style="fill:#f09e23"
         d="m 85.5656,1172.3108 c -3.54845,-1.2996 -5.9838,-4.9869 -9.66015,-14.6262 -0.94394,-2.475 -2.96259,-7.425 -4.48589,-11 -7.9201,-18.5876 -13.34478,-31.0657 -15.65044,-36 -1.41351,-3.025 -3.35383,-7.525 -4.31184,-10 -1.86595,-4.8206 -11.86335,-27.8882 -14.95218,-34.5 -1.75843,-3.764 -4.90754,-11.1029 -10.72743,-25 -3.11479,-7.4377 -8.74753,-20.3614 -11.76786,-27 -1.25115,-2.75 -3.73286,-8.375 -5.51493,-12.5 -1.78206,-4.125 -4.13877,-9.525 -5.23713,-12 -1.09836,-2.475 -2.80981,-6.975 -3.80322,-10 -0.99342,-3.025 -2.93044,-7.7855 -4.30449,-10.5789 -2.63016,-5.347 -13.96666,-17.4211 -16.35689,-17.4211 -0.77058,0 -2.8412,-0.7785 -4.60139,-1.73 -1.76019,-0.95153 -6.34904,-1.96403 -10.19745,-2.25002 -6.93963,-0.51571 -7.01168,-0.55101 -8.77066,-4.29713 -1.809053,-3.85279 -1.21737,-7.03128 1.66747,-8.95754 0.60517,-0.40408 30.39306,-0.74158 66.19531,-0.75 61.8039,-0.0145 65.17869,0.0771 66.75,1.81343 1.9356,2.13881 2.08085,4.14249 0.54472,7.51394 -1.41662,3.10914 -4.84001,4.65732 -10.29847,4.65732 -5.47413,0 -16.62609,4.9575 -19.56953,8.6995 -1.76885,2.2487 -2.09566,3.7158 -1.73434,7.7857 0.80548,9.0728 5.36771,23.7972 11.62369,37.5148 9.35615,20.5155 13.22877,29.2538 23.26693,52.5 1.6625,3.85 4.04893,9.25 5.30317,12 1.25425,2.75 4.16444,9.275 6.4671,14.5 2.30266,5.225 5.13321,11.6375 6.29012,14.25 1.15691,2.6125 2.41626,4.75 2.79855,4.75 0.78879,0 3.59764,-7.5267 7.46371,-20 1.44901,-4.675 3.03828,-9.4 3.53171,-10.5 0.49343,-1.1 2.06843,-5.825 3.5,-10.5 1.43157,-4.675 2.99516,-9.4 3.47466,-10.5 0.4795,-1.1 5.21632,-15.1621 10.52628,-31.249 5.30996,-16.087 10.06866,-29.505 10.57487,-29.8179 1.22356,-0.7562 4.47119,-7.1951 6.35015,-12.5901 1.81782,-5.2195 2.00389,-15.7344 0.34295,-19.3798 -0.68602,-1.5056 -3.23807,-3.6643 -5.96676,-5.0471 -4.05548,-2.05502 -6.20013,-2.4161 -14.35094,-2.4161 -11.9664,0 -15.48358,-1.44714 -15.48358,-6.37069 0,-2.10392 0.77048,-4.01687 2.10421,-5.22432 1.99739,-1.80828 4.51089,-1.91912 49.51291,-2.18326 30.01388,-0.17618 48.08932,0.086 49.26369,0.71448 2.45697,1.31493 3.44685,6.60573 1.85802,9.93092 -1.02599,2.14725 -2.17847,2.75633 -6.24843,3.30224 -16.41556,2.20183 -25.07875,7.31643 -32.35058,19.09903 -2.29264,3.7149 -4.60795,9.2132 -8.19097,19.4519 -1.00477,2.8712 -2.49896,6.6962 -3.32042,8.5 -0.82147,1.8038 -2.17582,5.3047 -3.00968,7.7797 -0.83386,2.475 -2.48085,6.975 -3.65998,10 -5.5444,14.2239 -7.32453,18.9002 -9.13608,24 -2.2711,6.3935 -4.50775,12.1502 -6.51951,16.7797 -0.78385,1.8038 -2.26098,5.6288 -3.28252,8.5 -5.82856,16.382 -7.05906,19.6754 -9.04941,24.2203 -1.2043,2.75 -3.23238,7.925 -4.50685,11.5 -1.27447,3.575 -3.52928,9.65 -5.0107,13.5 -1.48141,3.85 -4.01464,10.6 -5.6294,15 -1.61476,4.4 -3.76556,10.25 -4.77956,13 -1.014,2.75 -3.28786,8.375 -5.05302,12.5 -2.92227,6.829 -4.83552,12.1649 -6.81272,19 -0.70721,2.4448 -0.95451,2.5042 -11.20109,2.6904 -6.39318,0.1162 -11.81344,-0.2987 -13.90373,-1.0642 z m 200.38525,-6.8713 c -0.2685,-0.6997 -0.36921,-15.6683 -0.22381,-33.2636 l 0.26438,-31.9913 33.5,0 33.5,0 0,33 0,33 -33.2762,0.2635 c -26.20099,0.2075 -33.37999,-0.01 -33.76437,-1.0086 z m 0.53577,-163.5882 c -0.63336,-0.2122 -0.9952,-12.3014 -0.9952,-33.25 l 0,-32.9167 34,0 34,0 0,32.9736 0,32.9736 -33.0048,0.2764 c -18.15264,0.152 -33.45264,0.1264 -34,-0.057 z"
         id="path3086"
         inkscape:connector-curvature="0" />
      <path
         style="fill:#fd9801"
         d="m 85.5656,1172.3108 c -3.54845,-1.2996 -5.9838,-4.9869 -9.66015,-14.6262 -0.94394,-2.475 -2.96259,-7.425 -4.48589,-11 -7.9201,-18.5876 -13.34478,-31.0657 -15.65044,-36 -1.41351,-3.025 -3.35383,-7.525 -4.31184,-10 -1.86595,-4.8206 -11.86335,-27.8882 -14.95218,-34.5 -1.75843,-3.764 -4.90754,-11.1029 -10.72743,-25 -3.11479,-7.4377 -8.74753,-20.3614 -11.76786,-27 -1.25115,-2.75 -3.73286,-8.375 -5.51493,-12.5 -1.78206,-4.125 -4.13877,-9.525 -5.23713,-12 -1.09836,-2.475 -2.80981,-6.975 -3.80322,-10 -0.99342,-3.025 -2.93044,-7.7855 -4.30449,-10.5789 -2.63016,-5.347 -13.96666,-17.4211 -16.35689,-17.4211 -0.77058,0 -2.8412,-0.7785 -4.60139,-1.73 -1.76019,-0.95153 -6.34904,-1.96403 -10.19745,-2.25002 -6.93963,-0.51571 -7.01168,-0.55101 -8.77066,-4.29713 -1.809053,-3.85279 -1.21737,-7.03128 1.66747,-8.95754 0.60517,-0.40408 30.39306,-0.74158 66.19531,-0.75 61.8039,-0.0145 65.17869,0.0771 66.75,1.81343 1.9356,2.13881 2.08085,4.14249 0.54472,7.51394 -1.41662,3.10914 -4.84001,4.65732 -10.29847,4.65732 -5.47413,0 -16.62609,4.9575 -19.56953,8.6995 -1.76885,2.2487 -2.09566,3.7158 -1.73434,7.7857 0.80548,9.0728 5.36771,23.7972 11.62369,37.5148 9.35615,20.5155 13.22877,29.2538 23.26693,52.5 1.6625,3.85 4.04893,9.25 5.30317,12 1.25425,2.75 4.16444,9.275 6.4671,14.5 2.30266,5.225 5.13321,11.6375 6.29012,14.25 1.15691,2.6125 2.41626,4.75 2.79855,4.75 0.78879,0 3.59764,-7.5267 7.46371,-20 1.44901,-4.675 3.03828,-9.4 3.53171,-10.5 0.49343,-1.1 2.06843,-5.825 3.5,-10.5 1.43157,-4.675 2.99516,-9.4 3.47466,-10.5 0.4795,-1.1 5.21632,-15.1621 10.52628,-31.249 5.30996,-16.087 10.06866,-29.505 10.57487,-29.8179 1.22356,-0.7562 4.47119,-7.1951 6.35015,-12.5901 1.81782,-5.2195 2.00389,-15.7344 0.34295,-19.3798 -0.68602,-1.5056 -3.23807,-3.6643 -5.96676,-5.0471 -4.05548,-2.05502 -6.20013,-2.4161 -14.35094,-2.4161 -11.9664,0 -15.48358,-1.44714 -15.48358,-6.37069 0,-2.10392 0.77048,-4.01687 2.10421,-5.22432 1.99739,-1.80828 4.51089,-1.91912 49.51291,-2.18326 30.01388,-0.17618 48.08932,0.086 49.26369,0.71448 2.45697,1.31493 3.44685,6.60573 1.85802,9.93092 -1.02599,2.14725 -2.17847,2.75633 -6.24843,3.30224 -16.41556,2.20183 -25.07875,7.31643 -32.35058,19.09903 -2.29264,3.7149 -4.60795,9.2132 -8.19097,19.4519 -1.00477,2.8712 -2.49896,6.6962 -3.32042,8.5 -0.82147,1.8038 -2.17582,5.3047 -3.00968,7.7797 -0.83386,2.475 -2.48085,6.975 -3.65998,10 -5.5444,14.2239 -7.32453,18.9002 -9.13608,24 -2.2711,6.3935 -4.50775,12.1502 -6.51951,16.7797 -0.78385,1.8038 -2.26098,5.6288 -3.28252,8.5 -5.82856,16.382 -7.05906,19.6754 -9.04941,24.2203 -1.2043,2.75 -3.23238,7.925 -4.50685,11.5 -1.27447,3.575 -3.52928,9.65 -5.0107,13.5 -1.48141,3.85 -4.01464,10.6 -5.6294,15 -1.61476,4.4 -3.76556,10.25 -4.77956,13 -1.014,2.75 -3.28786,8.375 -5.05302,12.5 -2.92227,6.829 -4.83552,12.1649 -6.81272,19 -0.70721,2.4448 -0.95451,2.5042 -11.20109,2.6904 -6.39318,0.1162 -11.81344,-0.2987 -13.90373,-1.0642 z m 200.92582,-39.1262 0,-32.5 33,0 33,0 0,32.5 0,32.5 -33,0 -33,0 0,-32.5 z m 0,-164.5 0,-32 33,0 33,0 0,32 0,32 -33,0 -33,0 0,-32 z"
         id="path3084"
         inkscape:connector-curvature="0" />
      <path
         style="fill:#848484"
         d="m 85.5656,1172.3108 c -3.54845,-1.2996 -5.9838,-4.9869 -9.66015,-14.6262 -0.94394,-2.475 -2.96259,-7.425 -4.48589,-11 -7.9201,-18.5876 -13.34478,-31.0657 -15.65044,-36 -1.41351,-3.025 -3.35383,-7.525 -4.31184,-10 -1.86595,-4.8206 -11.86335,-27.8882 -14.95218,-34.5 -1.75843,-3.764 -4.90754,-11.1029 -10.72743,-25 -3.11479,-7.4377 -8.74753,-20.3614 -11.76786,-27 -1.25115,-2.75 -3.73286,-8.375 -5.51493,-12.5 -1.78206,-4.125 -4.13877,-9.525 -5.23713,-12 -1.09836,-2.475 -2.80981,-6.975 -3.80322,-10 -0.99342,-3.025 -2.93044,-7.7855 -4.30449,-10.5789 -2.63016,-5.347 -13.96666,-17.4211 -16.35689,-17.4211 -0.77058,0 -2.8412,-0.7785 -4.60139,-1.73 -1.76019,-0.95153 -6.34904,-1.96403 -10.19745,-2.25002 -6.93963,-0.51571 -7.01168,-0.55101 -8.77066,-4.29713 -1.809053,-3.85279 -1.21737,-7.03128 1.66747,-8.95754 0.60517,-0.40408 30.39306,-0.74158 66.19531,-0.75 61.8039,-0.0145 65.17869,0.0771 66.75,1.81343 1.9356,2.13881 2.08085,4.14249 0.54472,7.51394 -1.41662,3.10914 -4.84001,4.65732 -10.29847,4.65732 -5.47413,0 -16.62609,4.9575 -19.56953,8.6995 -1.76885,2.2487 -2.09566,3.7158 -1.73434,7.7857 0.80548,9.0728 5.36771,23.7972 11.62369,37.5148 9.35615,20.5155 13.22877,29.2538 23.26693,52.5 1.6625,3.85 4.04893,9.25 5.30317,12 1.25425,2.75 4.16444,9.275 6.4671,14.5 2.30266,5.225 5.13321,11.6375 6.29012,14.25 1.15691,2.6125 2.41626,4.75 2.79855,4.75 0.78879,0 3.59764,-7.5267 7.46371,-20 1.44901,-4.675 3.03828,-9.4 3.53171,-10.5 0.49343,-1.1 2.06843,-5.825 3.5,-10.5 1.43157,-4.675 2.99516,-9.4 3.47466,-10.5 0.4795,-1.1 5.21632,-15.1621 10.52628,-31.249 5.30996,-16.087 10.06866,-29.505 10.57487,-29.8179 1.22356,-0.7562 4.47119,-7.1951 6.35015,-12.5901 1.81782,-5.2195 2.00389,-15.7344 0.34295,-19.3798 -0.68602,-1.5056 -3.23807,-3.6643 -5.96676,-5.0471 -4.05548,-2.05502 -6.20013,-2.4161 -14.35094,-2.4161 -11.9664,0 -15.48358,-1.44714 -15.48358,-6.37069 0,-2.10392 0.77048,-4.01687 2.10421,-5.22432 1.99739,-1.80828 4.51089,-1.91912 49.51291,-2.18326 30.01388,-0.17618 48.08932,0.086 49.26369,0.71448 2.45697,1.31493 3.44685,6.60573 1.85802,9.93092 -1.02599,2.14725 -2.17847,2.75633 -6.24843,3.30224 -16.41556,2.20183 -25.07875,7.31643 -32.35058,19.09903 -2.29264,3.7149 -4.60795,9.2132 -8.19097,19.4519 -1.00477,2.8712 -2.49896,6.6962 -3.32042,8.5 -0.82147,1.8038 -2.17582,5.3047 -3.00968,7.7797 -0.83386,2.475 -2.48085,6.975 -3.65998,10 -5.5444,14.2239 -7.32453,18.9002 -9.13608,24 -2.2711,6.3935 -4.50775,12.1502 -6.51951,16.7797 -0.78385,1.8038 -2.26098,5.6288 -3.28252,8.5 -5.82856,16.382 -7.05906,19.6754 -9.04941,24.2203 -1.2043,2.75 -3.23238,7.925 -4.50685,11.5 -1.27447,3.575 -3.52928,9.65 -5.0107,13.5 -1.48141,3.85 -4.01464,10.6 -5.6294,15 -1.61476,4.4 -3.76556,10.25 -4.77956,13 -1.014,2.75 -3.28786,8.375 -5.05302,12.5 -2.92227,6.829 -4.83552,12.1649 -6.81272,19 -0.70721,2.4448 -0.95451,2.5042 -11.20109,2.6904 -6.39318,0.1162 -11.81344,-0.2987 -13.90373,-1.0642 z"
         id="path3082"
         inkscape:connector-curvature="0" />
      <path
         style="fill:#6f6f6f"
         d="m 84.79972,1171.675 c -2.80688,-1.1306 -4.48369,-3.8213 -7.78383,-12.4904 -1.46562,-3.85 -3.93127,-9.925 -5.47924,-13.5 -1.54796,-3.575 -4.94233,-11.45 -7.54304,-17.5 -2.6007,-6.05 -6.52726,-15.05 -8.72569,-20 -3.59463,-8.0937 -5.06148,-11.5165 -10.07105,-23.5 -0.80472,-1.925 -3.58879,-8.225 -6.18682,-14 -2.59803,-5.775 -5.77308,-12.975 -7.05566,-16 -1.28257,-3.025 -3.7618,-8.875 -5.50939,-13 -5.034,-11.8822 -9.90083,-23.0803 -12.38649,-28.5 -1.26123,-2.75 -3.43455,-7.7 -4.8296,-11 -1.39505,-3.3 -3.90434,-9.15 -5.57621,-13 -1.67187,-3.85 -3.35938,-8.35 -3.75002,-10 -1.79195,-7.5689 -10.15357,-20.0598 -16.59823,-24.7951 -5.80538,-4.2656 -10.0589,-5.82736 -17.90958,-6.57592 -3.6281,-0.34594 -7.31168,-1.22257 -8.18572,-1.94808 -2.16602,-1.79791 -3.090003,-6.61678 -1.74912,-9.12225 1.09525,-2.04648 1.49435,-2.05865 67.53139,-2.05865 66.36709,0 66.43069,0.002 67.54856,2.09073 1.54718,2.89093 -0.50392,7.57627 -4.13975,9.45643 -1.54522,0.79906 -4.85564,1.45284 -7.35648,1.45284 -5.58067,0 -16.90452,5.0817 -19.22892,8.6292 -1.2629,1.9274 -1.48067,3.9914 -1.01929,9.6609 0.3227,3.9655 1.02336,8.5599 1.55702,10.2099 0.53366,1.65 1.48069,4.8 2.1045,7 1.126,3.9711 3.45172,9.5582 9.5741,23 1.75357,3.85 4.76965,10.6 6.7024,15 1.93274,4.4 5.10153,11.6 7.04174,16 1.94022,4.4 4.98378,11.375 6.76347,15.5 1.7797,4.125 4.3418,9.975 5.69356,13 1.35176,3.025 4.26269,9.55 6.46873,14.5 2.20604,4.95 5.17318,11.5961 6.59363,14.769 1.42045,3.173 2.99757,5.6307 3.5047,5.4617 0.50714,-0.1691 9.21036,-25.2651 19.34051,-55.769 10.13014,-30.504 19.24389,-56.6005 20.25277,-57.9924 4.95497,-6.836 6.46403,-11.3642 6.90287,-20.7132 0.50364,-10.7295 -0.44993,-13.0144 -6.77891,-16.2432 -3.14198,-1.60296 -5.89855,-2.0129 -13.53503,-2.0129 -12.44321,0 -15.49018,-1.37505 -15.49018,-6.9905 0,-2.87105 0.52447,-4.21982 1.93426,-4.97432 2.9365,-1.57156 97.28665,-1.41427 98.86574,0.16482 1.86762,1.86762 1.47248,8.24344 -0.62874,10.14501 -1.03513,0.93678 -3.49962,1.65499 -5.679,1.65499 -4.23518,0 -8.42491,1.1495 -15.94703,4.3752 -11.75431,5.0407 -15.58676,11.0149 -27.02294,42.1248 -2.02183,5.5 -4.49356,12.025 -5.49274,14.5 -1.63034,4.0384 -3.90474,9.8898 -6.02475,15.5 -0.41568,1.1 -1.31024,3.35 -1.98793,5 -0.67768,1.65 -2.03297,5.475 -3.01175,8.5 -1.62438,5.0202 -2.66182,7.6379 -6.53926,16.5 -1.38732,3.1708 -4.35672,11.3587 -7.43441,20.5 -1.01846,3.025 -3.06677,8.2 -4.5518,11.5 -1.48502,3.3 -3.50202,8.475 -4.48221,11.5 -0.98019,3.025 -2.33663,6.85 -3.01431,8.5 -0.67769,1.65 -1.57225,3.9 -1.98793,5 -1.29191,3.4188 -3.67774,9.6729 -6.89909,18.0851 -1.70286,4.4468 -3.09611,8.4405 -3.09611,8.875 0,0.7342 -1.58664,4.6335 -7.54401,18.5399 -2.02094,4.7175 -3.77831,9.8344 -5.06582,14.75 -0.38756,1.4797 -21.50275,1.6821 -25.08187,0.2404 z"
         id="path3080"
         inkscape:connector-curvature="0" />
      <path
         style="fill:#4c4c4c"
         d="m 85.91939,1171.5056 c -3.15753,-1.0363 -5.3215,-4.3645 -8.98627,-13.821 -0.95916,-2.475 -3.07116,-7.65 -4.69333,-11.5 -5.20523,-12.3539 -7.54548,-17.9179 -9.04292,-21.5 -0.80472,-1.925 -3.49067,-8 -5.96876,-13.5 -4.10321,-9.1069 -6.20858,-13.9745 -13.19188,-30.5 -1.2783,-3.025 -4.22003,-9.775 -6.53719,-15 -6.19553,-13.9705 -7.44432,-16.83 -10.48109,-24 -1.51414,-3.575 -4.23463,-9.875 -6.04553,-14 -1.8109,-4.125 -4.63368,-10.65 -6.27285,-14.5 -1.63916,-3.85 -5.25405,-12.175 -8.03307,-18.5 -2.77902,-6.325 -5.75752,-13.6598 -6.61889,-16.2996 -2.07292,-6.3527 -4.91388,-11.8161 -8.83149,-16.9838 -3.26273,-4.3038 -10.91798,-10.7166 -12.79286,-10.7166 -0.56714,0 -2.47131,-0.7761 -4.2315,-1.72475 -1.76019,-0.94862 -6.10268,-1.96112 -9.64998,-2.25 -5.99869,-0.48853 -6.58271,-0.75378 -8.35287,-3.79378 -1.77572,-3.04954 -1.794299,-3.43478 -0.27731,-5.75 l 1.62593,-2.48147 65.27694,0 c 49.43763,0 65.56813,0.29118 66.47695,1.2 1.94601,1.94601 1.38005,5.71086 -1.25455,8.34545 -1.96249,1.9625 -3.47397,2.45455 -7.53983,2.45455 -3.11185,0 -6.60665,0.77614 -9.00562,2 -2.15618,1.1 -4.51296,2 -5.2373,2 -2.09823,0 -7.61471,5.5622 -8.32559,8.3945 -0.69933,2.7864 -0.20329,7.7292 1.41559,14.1055 0.55855,2.2 1.49669,6.025 2.08475,8.5 0.58805,2.475 2.16608,6.975 3.50673,10 2.91666,6.5811 8.9326,20.1285 17.98459,40.5 3.66586,8.25 7.82001,17.7 9.23145,21 3.50151,8.1867 9.07062,20.7587 12.40338,28 1.5188,3.3 4.22355,9.2758 6.01055,13.2795 1.787,4.0037 3.73886,7.1174 4.33747,6.9195 0.59861,-0.198 9.48447,-25.5203 19.74636,-56.2718 10.26188,-30.7515 19.16339,-56.5903 19.78113,-57.4195 0.61774,-0.8293 2.68415,-4.7407 4.59203,-8.6922 2.96031,-6.1311 3.46886,-8.2275 3.46886,-14.2996 0,-9.1288 -1.62642,-12.2862 -7.98975,-15.51071 -4.27719,-2.16741 -6.26656,-2.50519 -14.7545,-2.50519 -11.31584,0 -14.25575,-1.24375 -14.25575,-6.03102 0,-5.88219 0.76084,-5.96898 52.3279,-5.96898 51.55288,0 49.0721,-0.33673 49.0721,6.66082 0,4.02547 -1.51799,5.30238 -6.329,5.32387 -6.54816,0.0292 -22.45218,6.63071 -26.39634,10.95671 -4.4443,4.8745 -8.57545,12.2708 -12.22774,21.8923 -2.01812,5.3165 -4.48138,11.6913 -5.47392,14.1663 -1.58286,3.947 -5.7798,15.0111 -13.46627,35.5 -1.238,3.3 -4.55847,11.9486 -7.37882,19.2192 -2.82035,7.2705 -5.12791,13.671 -5.12791,14.2232 0,0.5523 -0.85812,2.9286 -1.90694,5.2808 -1.81394,4.0682 -4.372,10.5637 -8.96996,22.7768 -1.13884,3.025 -3.26073,8.65 -4.7153,12.5 -1.45457,3.85 -3.66411,9.7 -4.91009,13 -1.24597,3.3 -3.93271,10.5 -5.97053,16 -2.03782,5.5 -5.29354,13.825 -7.23493,18.5 -1.94139,4.675 -4.52513,11.425 -5.74163,15 l -2.21183,6.5 -9.9194,0.1647 c -5.45566,0.091 -11.3018,-0.2891 -12.99142,-0.8437 z"
         id="path3078"
         inkscape:connector-curvature="0" />
      <path
         style="fill:#373737"
         d="m 85.37594,1170.5672 c -1.6935,-0.6213 -3.24445,-2.4442 -4.3997,-5.1711 -0.98131,-2.3163 -2.54128,-6.0115 -3.4666,-8.2115 -0.92532,-2.2 -2.83772,-6.7 -4.24979,-10 -1.41207,-3.3 -3.9921,-9.375 -5.73342,-13.5 -6.52082,-15.4472 -7.98685,-18.8375 -14.05343,-32.5 -3.41905,-7.7 -7.33956,-16.7 -8.71225,-20 -1.37268,-3.3 -3.98401,-9.375 -5.80296,-13.5 -1.81894,-4.125 -5.547,-12.675 -8.28458,-19 -2.73758,-6.325 -6.64478,-15.325 -8.68268,-20 -4.10842,-9.4248 -8.39136,-19.4017 -12.23468,-28.5 -1.39399,-3.3 -3.56754,-8.25 -4.8301,-11 -1.26257,-2.75 -2.9988,-7.1444 -3.85829,-9.7653 -2.94694,-8.9864 -7.62427,-16.7952 -13.56142,-22.6409 -6.7346,-6.6309 -11.97545,-8.97221 -22.30936,-9.96667 -6.95068,-0.66889 -8.13399,-1.41626 -9.32577,-5.89012 -1.438432,-5.39981 -3.524985,-5.23701 67.12051,-5.23701 70.17858,0 68.62361,-0.11554 67.00678,4.97865 -0.9931,3.12897 -5.22071,5.40445 -11.43219,6.15331 -7.58526,0.91447 -14.15712,3.43714 -17.92905,6.88234 -2.85056,2.6035 -3.14146,3.4175 -3.10199,8.6793 0.0654,8.7215 2.65114,19.5758 7.10054,29.8064 5.3418,12.2826 11.86433,27.0365 20.115,45.5 1.35176,3.025 3.91386,8.875 5.69356,13 21.09543,48.8952 23.53452,53.7098 25.71645,50.7623 0.51396,-0.6943 5.33884,-14.7623 10.72198,-31.2623 5.38313,-16.5 10.16146,-30.9 10.6185,-32 0.89103,-2.1445 5.58297,-16.2692 9.46711,-28.5 3.99702,-12.5862 6.22436,-18.1271 10.97039,-27.2909 4.34638,-8.3921 4.55292,-9.1725 4.55292,-17.2029 0,-10.4992 -1.12715,-13.0302 -7.16548,-16.09005 -4.04543,-2.04998 -6.20568,-2.41615 -14.25422,-2.41615 -11.7571,0 -14.5803,-1.08924 -14.5803,-5.62533 0,-2.24341 0.62102,-3.63666 1.93426,-4.33949 1.25539,-0.67186 18.59084,-1.03518 49.39301,-1.03518 52.16745,0 48.67273,-0.43415 48.67273,6.0466 0,3.54265 -1.69861,4.50433 -9.26738,5.24676 -8.30791,0.81492 -18.71276,5.90894 -24.32525,11.90914 -4.54116,4.8549 -10.64692,16.3938 -13.91513,26.2975 -1.6913,5.1252 -3.98272,11.2194 -10.15204,27 -1.93516,4.95 -3.97775,10.35 -4.53909,12 -1.0035,2.9497 -2.19008,6.0682 -9.13206,24 -1.9163,4.95 -5.13537,13.5 -7.1535,19 -2.01812,5.5 -4.48682,12.025 -5.486,14.5 -0.99917,2.475 -2.49009,6.3 -3.31314,8.5 -0.82306,2.2 -2.62157,6.925 -3.99669,10.5 -1.37512,3.575 -2.96095,7.85 -3.52405,9.5 -0.56311,1.65 -3.0875,8.2136 -5.60975,14.5858 -2.52226,6.3722 -4.58592,11.9204 -4.58592,12.3294 0,1.1247 -4.71467,13.1101 -8.57388,21.796 -1.88436,4.2412 -3.42612,8.8537 -3.42612,10.25 l 0,2.5388 -10.75,-0.079 c -5.9125,-0.043 -11.92697,-0.5108 -13.36548,-1.0385 z"
         id="path3076"
         inkscape:connector-curvature="0" />
      <path
         style="fill:#272727"
         d="m 85.93254,1170.2741 c -2.46018,-1.0715 -3.71115,-2.8743 -6.39137,-9.2109 -1.83286,-4.3332 -4.66409,-11.0286 -6.29163,-14.8786 -1.62754,-3.85 -4.00652,-9.475 -5.28664,-12.5 -1.28011,-3.025 -6.4313,-14.95 -11.44709,-26.5 -5.01578,-11.55 -10.27414,-23.7 -11.68523,-27 -1.41109,-3.3 -4.0556,-9.375 -5.87669,-13.5 -1.82109,-4.125 -4.17621,-9.525 -5.23358,-12 -2.92439,-6.8451 -8.04256,-18.6463 -11.70989,-27 -1.8109,-4.125 -4.4409,-10.2 -5.84444,-13.5 -1.40355,-3.3 -4.86937,-11.175 -7.70183,-17.5 -2.83246,-6.325 -5.97232,-14.028 -6.97746,-17.1177 -4.46846,-13.7358 -13.81355,-26.2409 -21.99527,-29.4327 -0.825,-0.3218 -3.42454,-1.45467 -5.77675,-2.51739 -2.5449,-1.14977 -6.48272,-1.93221 -9.72432,-1.93221 -5.04508,0 -5.56254,-0.22232 -7.0036,-3.00903 -1.17395,-2.27017 -1.29345,-3.49967 -0.48666,-5.00718 1.05457,-1.97047 1.97958,-1.99458 66.78035,-1.74097 l 65.71098,0.25718 0.31058,2.68942 c 0.49292,4.26841 -2.81066,6.81058 -8.85042,6.81058 -3.06639,0 -6.57491,0.78314 -8.96016,2 -2.15618,1.1 -4.61325,2 -5.46016,2 -0.84691,0 -3.37789,1.8381 -5.6244,4.0846 -3.99612,3.9961 -4.07424,4.2072 -3.60812,9.75 0.26203,3.116 0.94544,7.4654 1.51868,9.6654 0.57324,2.2 1.52183,6.025 2.10797,8.5 0.58614,2.475 2.46897,7.65 4.18406,11.5 1.7151,3.85 4.70374,10.6 6.64144,15 1.9377,4.4 4.53865,10.25 5.77988,13 3.92689,8.7001 10.555,23.746 13.65635,31 4.99718,11.6883 9.86454,22.6223 13.42365,30.1548 1.85936,3.9351 3.38065,7.5677 3.38065,8.0724 0,1.9962 6.22923,12.2728 7.43925,12.2728 1.63759,0 1.17158,1.298 22.07956,-61.5 9.70521,-29.15 18.21693,-53.675 18.91494,-54.5 4.57773,-5.4105 7.56729,-14.4629 7.56251,-22.8992 -0.005,-8.3989 -2.14355,-12.1283 -8.92696,-15.56568 -4.32169,-2.18997 -6.30969,-2.53512 -14.6018,-2.53512 -5.27944,0 -10.4694,-0.46583 -11.53324,-1.03518 -2.44236,-1.30711 -2.49776,-5.14489 -0.10552,-7.30983 1.64728,-1.49077 6.51146,-1.65499 49.02144,-1.65499 l 47.1927,0 1.13907,2.5 c 1.89455,4.15807 -0.2619,7.5 -4.83951,7.5 -6.24383,0 -20.21193,5.3979 -25.60326,9.8943 -4.5156,3.766 -10.34939,13.5466 -14.31828,24.0051 -2.0038,5.2804 -4.45029,11.6256 -5.43665,14.1006 -3.61131,9.0617 -10.19939,26.3331 -11.95754,31.3481 -2.37485,6.7741 -6.8062,18.6303 -7.90565,21.1519 -1.68256,3.8589 -3.16595,7.7094 -6.66974,17.3127 -3.38826,9.2867 -4.48641,12.182 -8.41511,22.1873 -2.35277,5.9918 -11.70557,30.847 -14.67541,39 -1.30223,3.575 -2.79348,7.4 -3.31388,8.5 -0.52041,1.1 -1.61648,4.025 -2.43573,6.5 -1.67357,5.056 -5.51386,14.721 -7.94674,20 -0.88715,1.925 -2.09193,5.4125 -2.67727,7.75 l -1.06427,4.25 -9.71145,-0.039 c -5.80578,-0.023 -10.94166,-0.575 -12.77034,-1.3714 z"
         id="path3074"
         inkscape:connector-curvature="0" />
      <path
         style="fill:#171717"
         d="m 86.53854,1169.9054 c -3.5604,-1.7744 -3.71214,-2.0562 -12.7704,-23.7208 -1.37977,-3.3 -3.77017,-8.925 -5.31199,-12.5 -1.54182,-3.575 -3.47638,-8.075 -4.29902,-10 -1.41977,-3.3223 -3.5813,-8.2215 -8.60345,-19.5 -1.22453,-2.75 -3.26071,-7.475 -4.52485,-10.5 -6.25907,-14.9775 -7.6726,-18.249 -12.01909,-27.8167 -2.57771,-5.6742 -5.9394,-13.3242 -7.47043,-17 -1.53103,-3.6758 -3.56936,-8.4833 -4.52964,-10.6833 -0.96027,-2.2 -3.21876,-7.375 -5.01887,-11.5 -1.80011,-4.125 -4.41094,-10.2 -5.80186,-13.5 -4.3774,-10.3856 -5.41127,-12.7712 -9.53418,-22 -2.21138,-4.95 -4.34256,-10.35 -4.73595,-12 -1.02337,-4.2923 -5.91394,-13.7801 -9.69252,-18.8036 -6.29077,-8.3634 -15.84301,-13.58449 -26.70202,-14.59474 -5.71301,-0.5315 -6.64589,-0.92133 -8,-3.34303 -1.1665,-2.08618 -1.26783,-3.16169 -0.42398,-4.5 1.03659,-1.64399 5.29894,-1.77541 65.38863,-2.01603 46.64821,-0.18679 64.65317,0.0525 65.64113,0.87245 2.0077,1.66625 1.66703,3.6702 -1.09318,6.4304 -1.92164,1.92165 -3.49567,2.45556 -7.25,2.45918 -6.01281,0.006 -15.7228,3.86352 -20.04545,7.96387 -2.93323,2.7825 -3.24885,3.6409 -3.23819,8.8072 0.0105,5.0706 1.98933,14.8773 4.78726,23.7243 1.0678,3.3764 3.81158,9.6396 8.80835,20.1068 1.86592,3.9087 3.39258,7.3828 3.39258,7.7203 0,0.3375 1.17915,3.2145 2.62033,6.3933 3.52843,7.7826 10.94932,24.5108 13.87613,31.2796 1.308,3.025 4.22208,9.775 6.47574,15 2.25365,5.225 5.14902,11.75 6.43414,14.5 1.28513,2.75 4.1737,8.9375 6.41905,13.75 2.24534,4.8125 4.49808,8.75 5.00608,8.75 0.508,0 1.42157,-0.6 2.03015,-1.3333 0.60858,-0.7333 9.47427,-26.4958 19.70154,-57.25 10.22727,-30.7542 19.22097,-56.6122 19.986,-57.4624 0.76503,-0.8501 2.75444,-4.5527 4.4209,-8.228 2.57107,-5.6704 3.02994,-7.9048 3.02994,-14.754 0,-10.1668 -1.4486,-13.1525 -7.98975,-16.46711 -4.25515,-2.15624 -6.28079,-2.50519 -14.54275,-2.50519 -10.87663,0 -13.4675,-0.89936 -13.4675,-4.67494 0,-5.27642 -0.16405,-5.25893 49.62756,-5.29326 50.79141,-0.035 48.80893,-0.28813 48.19067,6.15288 -0.30928,3.22209 -0.47289,3.33337 -5.81823,3.95729 -12.16092,1.41943 -20.63826,5.43733 -27.44458,13.00763 -5.49099,6.1073 -8.4954,11.6918 -13.06373,24.2823 -1.80964,4.9875 -3.7568,10.1931 -4.32703,11.5681 -0.57023,1.375 -2.45645,6.325 -4.1916,11 -1.73515,4.675 -3.75858,9.85 -4.49652,11.5 -0.73793,1.65 -2.00442,5.025 -2.81442,7.5 -0.81001,2.475 -2.02138,5.85 -2.69194,7.5 -0.67056,1.65 -1.55736,3.9 -1.97065,5 -0.4133,1.1 -1.98056,5.15 -3.48281,9 -3.04381,7.8007 -8.1872,21.6595 -9.46377,25.5 -0.45705,1.375 -2.4892,6.55 -4.51589,11.5 -2.02669,4.95 -4.37134,11.025 -5.21034,13.5 -0.839,2.475 -2.12539,5.85 -2.85866,7.5 -0.73326,1.65 -2.01627,5.025 -2.85113,7.5 -0.83486,2.475 -2.71284,7.65 -4.17329,11.5 -2.86775,7.5599 -7.77731,20.6428 -10.08344,26.8703 -0.78828,2.1286 -2.12784,5.2135 -2.97681,6.8552 -0.84897,1.6417 -2.34696,5.5251 -3.32888,8.6297 l -1.7853,5.6448 -8.8846,0.2208 c -6.73985,0.1675 -9.71814,-0.1946 -12.33749,-1.5 z"
         id="path3072"
         inkscape:connector-curvature="0" />
      <path
         style="fill:#000000"
         d="m 85.91173,1168.7991 c -1.69383,-1.0329 -3.64892,-3.3937 -4.34463,-5.2462 -2.58431,-6.8815 -4.49011,-11.5338 -7.24584,-17.6881 -1.55641,-3.4758 -2.82984,-6.9368 -2.82984,-7.691 0,-0.7541 -0.41456,-1.6274 -0.92124,-1.9405 -0.50668,-0.3132 -1.68826,-2.7022 -2.62573,-5.309 -0.93747,-2.6069 -2.72735,-6.9897 -3.97752,-9.7397 -2.989,-6.5749 -8.56877,-19.3817 -11.98144,-27.5 -1.50281,-3.575 -4.02876,-9.274 -5.61323,-12.6644 -1.58446,-3.3905 -2.88084,-6.534 -2.88084,-6.9857 0,-0.4516 -1.11958,-3.0777 -2.48795,-5.8355 -2.79154,-5.6263 -11.98065,-26.9621 -14.15129,-32.8574 -0.77824,-2.1136 -2.27197,-5.5228 -3.31938,-7.5759 -3.3864,-6.6379 -18.21813,-41.3718 -20.74465,-48.5811 -4.51942,-12.896 -9.27904,-20.003 -18.42875,-27.5172 -1.9976,-1.6405 -4.15303,-2.9828 -4.78983,-2.9828 -0.63681,0 -2.92197,-0.9 -5.07815,-2 -2.49223,-1.27144 -5.89377,-2 -9.33772,-2 -5.97584,0 -8.02407,-1.4208 -7.48904,-5.19496 l 0.32676,-2.30504 64.9863,0 c 60.19521,0 65.01028,0.12449 65.31149,1.68852 0.61225,3.17916 -3.35544,5.81148 -8.75963,5.81148 -6.71706,0 -19.39861,5.9329 -22.16471,10.3695 -2.17936,3.4956 -2.15346,11.7624 0.0599,19.1305 0.66088,2.2 1.64916,6.179 2.19616,8.8422 0.54701,2.6632 2.31663,7.4439 3.9325,10.6237 1.61587,3.1798 2.93795,6.2881 2.93795,6.9073 0,0.6192 1.1315,3.2635 2.51445,5.8763 1.38295,2.6128 4.35485,9.0255 6.60421,14.2505 2.24936,5.225 5.87106,13.55 8.04823,18.5 2.17716,4.95 5.12073,11.7 6.54126,15 1.42054,3.3 3.80173,8.7 5.29155,12 2.42594,5.3736 5.48893,12.2007 13.81837,30.8 1.42859,3.19 3.12073,6.2342 3.7603,6.765 2.38677,1.9809 5.2433,-2.5221 8.92235,-14.065 2.01595,-6.325 4.06214,-12.4 4.54709,-13.5 0.48494,-1.1 2.05535,-5.825 3.48981,-10.5 1.43445,-4.675 3.45642,-10.75 4.49326,-13.5 1.03684,-2.75 3.05947,-8.825 4.49475,-13.5 1.43527,-4.675 3.01331,-9.4 3.50674,-10.5 0.49343,-1.1 2.06843,-5.825 3.5,-10.5 1.43157,-4.675 3.00506,-9.4 3.49664,-10.5 0.49159,-1.1 1.61867,-4.475 2.50461,-7.5 1.77936,-6.0755 3.4709,-9.8692 6.56483,-14.7233 3.87593,-6.081 5.90173,-13.3844 5.89781,-21.2626 -0.005,-9.3938 -1.91912,-12.9278 -8.92696,-16.47898 -4.32165,-2.18997 -6.30965,-2.53512 -14.60176,-2.53512 -12.46692,0 -16.26966,-2.05498 -11.89607,-6.42857 1.38392,-1.38393 7.17099,-1.57143 48.5,-1.57143 l 46.92857,0 0,4 0,4 -4.179,0 c -4.82821,0 -8.75062,1.16683 -17.821,5.3014 -10.69094,4.8732 -17.51764,14.1191 -24.07245,32.6032 -1.63924,4.6225 -3.61319,9.7975 -4.38657,11.5 -0.77337,1.7025 -2.08837,5.1204 -2.92223,7.5954 -0.83386,2.475 -2.48999,6.975 -3.68029,10 -3.57496,9.0853 -6.63638,17.1554 -8.9148,23.5 -2.51928,7.0153 -4.72854,12.6958 -6.72048,17.2797 -0.78385,1.8038 -2.2481,5.6288 -3.2539,8.5 -1.68033,4.7967 -2.80961,7.7565 -9.05011,23.7203 -1.18253,3.025 -3.21578,8.425 -4.51835,12 -5.14417,14.1185 -7.56578,20.5868 -8.42366,22.5 -0.49324,1.1 -2.09396,5.375 -3.55716,9.5 -1.4632,4.125 -3.03371,8.4 -3.49001,9.5 -6.33939,15.2821 -8.5967,20.9854 -10.38562,26.2403 l -2.12437,6.2403 -9,0.01 c -7.05269,0 -9.66635,-0.4003 -12.07969,-1.872 z"
         id="path3070"
         inkscape:connector-curvature="0" />
    </g>
  </g>
  <style
     id="style2986"
     type="text/css">
	.st0{fill:#BBBBBB;}
	.st1{fill:#78B2F2;}
</style>
</svg>
